<svg width="22" height="25" viewBox="0 0 22 25" fill="none" xmlns="http://www.w3.org/2000/svg">
    <path d="M20.8432 8.68608C20.7286 8.75293 18.0006 10.1637 18.0006 13.2918C18.1292 16.8591 21.4432 18.1102 21.5 18.1102C21.4432 18.177 20.9997 19.8144 19.686 21.5308C18.6435 23.0093 17.4863 24.5 15.7292 24.5C14.0577 24.5 13.4577 23.5146 11.5292 23.5146C9.45804 23.5146 8.87202 24.5 7.2863 24.5C5.52915 24.5 4.28629 22.9295 3.18691 21.4648C1.75864 19.5479 0.544667 16.5396 0.50181 13.6512C0.472927 12.1206 0.787835 10.616 1.58722 9.33808C2.71548 7.55397 4.72977 6.34286 6.92947 6.30292C8.61487 6.24996 10.1149 7.3812 11.1435 7.3812C12.1292 7.3812 13.972 6.30292 16.0571 6.30292C16.9571 6.30379 19.3571 6.55643 20.8432 8.68608ZM11.0009 5.99732C10.7009 4.59955 11.5292 3.20178 12.3006 2.31016C13.2863 1.23188 14.8432 0.5 16.1857 0.5C16.2714 1.89777 15.7282 3.26863 14.7574 4.26704C13.8863 5.34532 12.3863 6.15707 11.0009 5.99732Z" fill="white"/>
</svg>
