<svg width="28" height="28" viewBox="0 0 28 28" fill="none" xmlns="http://www.w3.org/2000/svg">
<path d="M26.25 14C26.25 20.762 20.7681 26.25 14 26.25C7.23187 26.25 1.75 20.762 1.75 14C1.75 7.23186 7.23187 1.74999 14 1.74999C20.7681 1.74999 26.25 7.23186 26.25 14Z" fill="#283544"/>
<path d="M19.7418 10.9002C19.675 10.9392 18.0837 11.7622 18.0837 13.5869C18.1587 15.6678 20.0918 16.3976 20.125 16.3976C20.0918 16.4366 19.8332 17.3917 19.0668 18.393C18.4587 19.2554 17.7837 20.125 16.7587 20.125C15.7837 20.125 15.4337 19.5502 14.3087 19.5502C13.1005 19.5502 12.7587 20.125 11.8337 20.125C10.8087 20.125 10.0837 19.2089 9.44236 18.3545C8.60921 17.2363 7.90106 15.4815 7.87606 13.7965C7.85921 12.9037 8.0429 12.026 8.50921 11.2805C9.16736 10.2398 10.3424 9.53333 11.6255 9.51004C12.6087 9.47915 13.4837 10.139 14.0837 10.139C14.6587 10.139 15.7337 9.51004 16.95 9.51004C17.475 9.51055 18.875 9.65792 19.7418 10.9002ZM14.0005 9.33177C13.8255 8.51641 14.3087 7.70104 14.7587 7.18093C15.3337 6.55193 16.2418 6.125 17.025 6.125C17.075 6.94037 16.7581 7.74003 16.1918 8.32244C15.6837 8.95144 14.8087 9.42496 14.0005 9.33177Z" fill="white"/>
</svg>
