<svg width="24" height="24" viewBox="0 0 24 24" fill="none" xmlns="http://www.w3.org/2000/svg">
<path d="M14 16H19V21" stroke="#FF6433" stroke-width="1.5" stroke-linecap="round" stroke-linejoin="round"/>
<path d="M4.58252 14.9969C5.1432 16.3846 6.08195 17.5872 7.29206 18.468C8.50217 19.3488 9.93511 19.8725 11.428 19.9795C12.9209 20.0865 14.4139 19.7726 15.7373 19.0734C17.0606 18.3742 18.1613 17.3177 18.9142 16.0242" stroke="#FF6433" stroke-width="1.5" stroke-linecap="round" stroke-linejoin="round"/>
<path d="M10 8H5V3" stroke="#FF6433" stroke-width="1.5" stroke-linecap="round" stroke-linejoin="round"/>
<path d="M19.4176 9.00315C18.8569 7.61541 17.9182 6.41278 16.7081 5.53197C15.498 4.65116 14.065 4.12749 12.5721 4.02048C11.0792 3.91346 9.58624 4.2274 8.26287 4.92661C6.9395 5.62582 5.83882 6.68226 5.08594 7.97584" stroke="#FF6433" stroke-width="1.5" stroke-linecap="round" stroke-linejoin="round"/>
</svg>
