<svg width="88" height="88" viewBox="0 0 88 88" fill="none" xmlns="http://www.w3.org/2000/svg">
    <g filter="url(#filter0_d_2417_4976)">
        <path d="M51.3858 68.351C52.5958 67.8257 53.0963 67.0557 53.4593 66.602C56.7208 62.532 49.7661 50.4457 39.8358 43.4525C29.3116 34.2895 17.7258 31.1655 14.4643 35.2382C13.9061 35.9367 13.4661 36.8882 13.2846 37.9607L7.09709 73.5622C6.88259 77.9017 8.54084 79.5517 9.37134 80.3547C10.8756 81.8177 13.7988 83.058 16.8513 81.9855C28.6241 77.4507 39.6543 73.466 51.3858 68.3537V68.351Z" fill="url(#paint0_linear_2417_4976)"/>
    </g>
    <path d="M51.3858 68.351C52.5958 67.8257 53.0963 67.0557 53.4593 66.602C56.7208 62.532 49.7661 50.4457 39.8358 43.4525C29.3116 34.2895 17.7258 31.1655 14.4643 35.2382C13.9061 35.9367 13.4661 36.8882 13.2846 37.9607L7.09709 73.5622C6.88259 77.9017 8.54084 79.5517 9.37134 80.3547C10.8756 81.8177 13.7988 83.058 16.8513 81.9855C28.6241 77.4507 39.6543 73.466 51.3858 68.3537V68.351Z" fill="url(#paint1_linear_2417_4976)"/>
    <path d="M51.3858 68.351C52.5958 67.8257 53.0963 67.0557 53.4593 66.602C56.7208 62.532 49.7661 50.4457 39.8358 43.4525C29.3116 34.2895 17.7258 31.1655 14.4643 35.2382C13.9061 35.9367 13.4661 36.8882 13.2846 37.9607L7.09709 73.5622C6.88259 77.9017 8.54084 79.5517 9.37134 80.3547C10.8756 81.8177 13.7988 83.058 16.8513 81.9855C28.6241 77.4507 39.6543 73.466 51.3858 68.3537V68.351Z" fill="url(#paint2_linear_2417_4976)"/>
    <path d="M51.3858 68.351C52.5958 67.8257 53.0963 67.0557 53.4593 66.602C56.7208 62.532 49.7661 50.4457 39.8358 43.4525C29.3116 34.2895 17.7258 31.1655 14.4643 35.2382C13.9061 35.9367 13.4661 36.8882 13.2846 37.9607L7.09709 73.5622C6.88259 77.9017 8.54084 79.5517 9.37134 80.3547C10.8756 81.8177 13.7988 83.058 16.8513 81.9855C28.6241 77.4507 39.6543 73.466 51.3858 68.3537V68.351Z" fill="url(#paint3_linear_2417_4976)"/>
    <g filter="url(#filter1_f_2417_4976)">
        <path d="M27.7257 58.5395C37.9693 67.0579 49.0004 70.6842 52.3643 66.639C55.7281 62.5938 50.1509 52.4091 39.9072 43.8907C29.6635 35.3723 18.6324 31.746 15.2686 35.7912C11.9047 39.8364 17.482 50.0211 27.7257 58.5395Z" fill="url(#paint4_linear_2417_4976)"/>
    </g>
    <g filter="url(#filter2_f_2417_4976)">
        <path d="M29.4004 56.1769C38.8944 64.0719 48.8855 67.7124 51.7162 64.3084C54.5469 60.9043 49.1453 51.7447 39.6513 43.8497C30.1573 35.9548 20.1662 32.3142 17.3355 35.7183C14.5047 39.1223 19.9064 48.282 29.4004 56.1769Z" fill="url(#paint5_linear_2417_4976)"/>
        <path d="M29.4004 56.1769C38.8944 64.0719 48.8855 67.7124 51.7162 64.3084C54.5469 60.9043 49.1453 51.7447 39.6513 43.8497C30.1573 35.9548 20.1662 32.3142 17.3355 35.7183C14.5047 39.1223 19.9064 48.282 29.4004 56.1769Z" fill="url(#paint6_radial_2417_4976)"/>
        <path d="M29.4004 56.1769C38.8944 64.0719 48.8855 67.7124 51.7162 64.3084C54.5469 60.9043 49.1453 51.7447 39.6513 43.8497C30.1573 35.9548 20.1662 32.3142 17.3355 35.7183C14.5047 39.1223 19.9064 48.282 29.4004 56.1769Z" fill="url(#paint7_radial_2417_4976)"/>
    </g>
    <path d="M41.1286 47.3079C42.9557 47.3079 44.4368 45.8268 44.4368 43.9997C44.4368 42.1726 42.9557 40.6914 41.1286 40.6914C39.3015 40.6914 37.8203 42.1726 37.8203 43.9997C37.8203 45.8268 39.3015 47.3079 41.1286 47.3079Z" fill="url(#paint8_radial_2417_4976)"/>
    <path d="M41.1286 47.3079C42.9557 47.3079 44.4368 45.8268 44.4368 43.9997C44.4368 42.1726 42.9557 40.6914 41.1286 40.6914C39.3015 40.6914 37.8203 42.1726 37.8203 43.9997C37.8203 45.8268 39.3015 47.3079 41.1286 47.3079Z" fill="url(#paint9_radial_2417_4976)"/>
    <path d="M68.2848 66.3001C70.1119 66.3001 71.5931 64.8189 71.5931 62.9918C71.5931 61.1648 70.1119 59.6836 68.2848 59.6836C66.4577 59.6836 64.9766 61.1648 64.9766 62.9918C64.9766 64.8189 66.4577 66.3001 68.2848 66.3001Z" fill="url(#paint10_radial_2417_4976)"/>
    <path d="M68.2848 66.3001C70.1119 66.3001 71.5931 64.8189 71.5931 62.9918C71.5931 61.1648 70.1119 59.6836 68.2848 59.6836C66.4577 59.6836 64.9766 61.1648 64.9766 62.9918C64.9766 64.8189 66.4577 66.3001 68.2848 66.3001Z" fill="url(#paint11_radial_2417_4976)"/>
    <path d="M68.2848 66.3001C70.1119 66.3001 71.5931 64.8189 71.5931 62.9918C71.5931 61.1648 70.1119 59.6836 68.2848 59.6836C66.4577 59.6836 64.9766 61.1648 64.9766 62.9918C64.9766 64.8189 66.4577 66.3001 68.2848 66.3001Z" fill="url(#paint12_radial_2417_4976)"/>
    <path d="M65.5114 22.6028C67.3385 22.6028 68.8196 21.1217 68.8196 19.2946C68.8196 17.4675 67.3385 15.9863 65.5114 15.9863C63.6843 15.9863 62.2031 17.4675 62.2031 19.2946C62.2031 21.1217 63.6843 22.6028 65.5114 22.6028Z" fill="url(#paint13_radial_2417_4976)"/>
    <path d="M65.5114 22.6028C67.3385 22.6028 68.8196 21.1217 68.8196 19.2946C68.8196 17.4675 67.3385 15.9863 65.5114 15.9863C63.6843 15.9863 62.2031 17.4675 62.2031 19.2946C62.2031 21.1217 63.6843 22.6028 65.5114 22.6028Z" fill="url(#paint14_radial_2417_4976)"/>
    <path d="M27.4762 12.5677C29.3033 12.5677 30.7845 11.0865 30.7845 9.25942C30.7845 7.43233 29.3033 5.95117 27.4762 5.95117C25.6491 5.95117 24.168 7.43233 24.168 9.25942C24.168 11.0865 25.6491 12.5677 27.4762 12.5677Z" fill="url(#paint15_radial_2417_4976)"/>
    <path d="M27.4762 12.5677C29.3033 12.5677 30.7845 11.0865 30.7845 9.25942C30.7845 7.43233 29.3033 5.95117 27.4762 5.95117C25.6491 5.95117 24.168 7.43233 24.168 9.25942C24.168 11.0865 25.6491 12.5677 27.4762 12.5677Z" fill="url(#paint16_radial_2417_4976)"/>
    <path d="M27.4762 12.5677C29.3033 12.5677 30.7845 11.0865 30.7845 9.25942C30.7845 7.43233 29.3033 5.95117 27.4762 5.95117C25.6491 5.95117 24.168 7.43233 24.168 9.25942C24.168 11.0865 25.6491 12.5677 27.4762 12.5677Z" fill="url(#paint17_radial_2417_4976)"/>
    <path d="M13.5504 25.6087C15.3775 25.6087 16.8587 24.1275 16.8587 22.3004C16.8587 20.4733 15.3775 18.9922 13.5504 18.9922C11.7233 18.9922 10.2422 20.4733 10.2422 22.3004C10.2422 24.1275 11.7233 25.6087 13.5504 25.6087Z" fill="url(#paint18_radial_2417_4976)"/>
    <path d="M13.5504 25.6087C15.3775 25.6087 16.8587 24.1275 16.8587 22.3004C16.8587 20.4733 15.3775 18.9922 13.5504 18.9922C11.7233 18.9922 10.2422 20.4733 10.2422 22.3004C10.2422 24.1275 11.7233 25.6087 13.5504 25.6087Z" fill="url(#paint19_radial_2417_4976)"/>
    <path d="M43.8702 71.5271C36.7037 71.0266 31.6767 68.8816 23.534 62.1523C16.527 56.3663 13.0482 51.2321 11.8877 45.9961L10.543 53.7318C11.093 56.7623 13.458 60.9918 18.1412 65.2268C24.2655 70.7626 30.365 74.6786 36.3957 74.5081C38.8952 73.5336 41.3868 72.5417 43.8702 71.5271Z" fill="url(#paint20_radial_2417_4976)"/>
    <path d="M28.7562 77.4485C25.3104 77.641 20.6547 74.8305 15.8202 70.8127C11.6952 67.246 9.66019 63.3712 9.23119 61.2812L7.86719 69.138C8.20269 70.4663 9.23394 72.273 12.2122 75.3255C15.5397 78.7355 18.8892 80.0665 20.8747 80.4433L25.0877 78.8427L28.7562 77.4485Z" fill="url(#paint21_radial_2417_4976)"/>
    <g filter="url(#filter3_d_2417_4976)">
        <path fill-rule="evenodd" clip-rule="evenodd" d="M76.7345 36.0492C66.84 34.116 60.9935 38.648 59.14 40.6802C58.8872 40.9696 58.5791 41.2055 58.234 41.3743C57.8888 41.5431 57.5134 41.6413 57.1298 41.6631C56.7461 41.6849 56.362 41.63 55.9999 41.5015C55.6378 41.373 55.305 41.1735 55.021 40.9147C54.7369 40.656 54.5074 40.3431 54.3458 39.9945C54.1843 39.6459 54.0939 39.2685 54.08 38.8845C54.0661 38.5005 54.129 38.1177 54.265 37.7583C54.401 37.3989 54.6074 37.0703 54.872 36.7917C57.7457 33.6375 65.5227 27.9725 77.8427 30.3815C78.5749 30.5477 79.2135 30.9926 79.6231 31.6217C80.0328 32.2509 80.1813 33.0149 80.0372 33.7517C79.893 34.4885 79.4676 35.1402 78.851 35.5686C78.2345 35.997 77.4753 36.1684 76.7345 36.0465V36.0492Z" fill="url(#paint22_radial_2417_4976)"/>
        <path fill-rule="evenodd" clip-rule="evenodd" d="M76.7345 36.0492C66.84 34.116 60.9935 38.648 59.14 40.6802C58.8872 40.9696 58.5791 41.2055 58.234 41.3743C57.8888 41.5431 57.5134 41.6413 57.1298 41.6631C56.7461 41.6849 56.362 41.63 55.9999 41.5015C55.6378 41.373 55.305 41.1735 55.021 40.9147C54.7369 40.656 54.5074 40.3431 54.3458 39.9945C54.1843 39.6459 54.0939 39.2685 54.08 38.8845C54.0661 38.5005 54.129 38.1177 54.265 37.7583C54.401 37.3989 54.6074 37.0703 54.872 36.7917C57.7457 33.6375 65.5227 27.9725 77.8427 30.3815C78.5749 30.5477 79.2135 30.9926 79.6231 31.6217C80.0328 32.2509 80.1813 33.0149 80.0372 33.7517C79.893 34.4885 79.4676 35.1402 78.851 35.5686C78.2345 35.997 77.4753 36.1684 76.7345 36.0465V36.0492Z" fill="url(#paint23_radial_2417_4976)"/>
    </g>
    <path fill-rule="evenodd" clip-rule="evenodd" d="M52.5349 5.72546C52.8778 5.74134 53.2143 5.82466 53.525 5.97067C53.8358 6.11667 54.1147 6.32249 54.3458 6.57636C54.577 6.83023 54.7558 7.12717 54.8721 7.4502C54.9884 7.77323 55.0399 8.11602 55.0236 8.45896C54.8538 11.4327 54.4129 14.3847 53.7064 17.2782C52.9859 20.2317 51.8776 23.5042 50.1699 26.312C50.5824 28.501 50.5934 31.0832 50.1396 34.0202C50.0339 34.7051 49.6604 35.3199 49.1013 35.7293C48.5423 36.1388 47.8435 36.3095 47.1586 36.2037C46.4738 36.098 45.859 35.7245 45.4495 35.1654C45.04 34.6064 44.8694 33.9076 44.9751 33.2227C45.0769 32.5682 45.1484 31.9522 45.1951 31.3747C44.6994 31.6356 44.1777 31.8439 43.6386 31.9962C42.6975 32.2708 41.7077 32.3363 40.7387 32.1881C39.7696 32.0399 38.8446 31.6816 38.0286 31.1382C35.0751 29.172 33.7139 24.8682 35.9991 21.3482C38.1716 18.0042 42.7036 17.094 46.1466 19.4755C46.5454 19.7505 46.9166 20.0585 47.2659 20.4022C47.8159 19.0135 48.2669 17.5285 48.6299 16.0407C49.4026 12.8727 49.7244 9.90271 49.8041 8.21421C49.82 7.87149 49.9032 7.53526 50.0491 7.22471C50.1949 6.91415 50.4005 6.63537 50.654 6.40426C50.9076 6.17316 51.2042 5.99427 51.527 5.8778C51.8497 5.76133 52.1922 5.70957 52.5349 5.72546ZM44.4306 25.3605C44.0346 24.5355 43.5616 24.0405 43.1766 23.7737C42.0986 23.0285 40.9161 23.375 40.3799 24.1972C40.1172 24.6158 40.0272 25.1201 40.1287 25.6037C40.2303 26.0874 40.5155 26.5128 40.9244 26.7905C41.2544 27.0105 41.6751 27.1205 42.2334 26.9637C42.7394 26.8207 43.5121 26.411 44.4306 25.3605Z" fill="url(#paint24_linear_2417_4976)"/>
    <path fill-rule="evenodd" clip-rule="evenodd" d="M52.5349 5.72546C52.8778 5.74134 53.2143 5.82466 53.525 5.97067C53.8358 6.11667 54.1147 6.32249 54.3458 6.57636C54.577 6.83023 54.7558 7.12717 54.8721 7.4502C54.9884 7.77323 55.0399 8.11602 55.0236 8.45896C54.8538 11.4327 54.4129 14.3847 53.7064 17.2782C52.9859 20.2317 51.8776 23.5042 50.1699 26.312C50.5824 28.501 50.5934 31.0832 50.1396 34.0202C50.0339 34.7051 49.6604 35.3199 49.1013 35.7293C48.5423 36.1388 47.8435 36.3095 47.1586 36.2037C46.4738 36.098 45.859 35.7245 45.4495 35.1654C45.04 34.6064 44.8694 33.9076 44.9751 33.2227C45.0769 32.5682 45.1484 31.9522 45.1951 31.3747C44.6994 31.6356 44.1777 31.8439 43.6386 31.9962C42.6975 32.2708 41.7077 32.3363 40.7387 32.1881C39.7696 32.0399 38.8446 31.6816 38.0286 31.1382C35.0751 29.172 33.7139 24.8682 35.9991 21.3482C38.1716 18.0042 42.7036 17.094 46.1466 19.4755C46.5454 19.7505 46.9166 20.0585 47.2659 20.4022C47.8159 19.0135 48.2669 17.5285 48.6299 16.0407C49.4026 12.8727 49.7244 9.90271 49.8041 8.21421C49.82 7.87149 49.9032 7.53526 50.0491 7.22471C50.1949 6.91415 50.4005 6.63537 50.654 6.40426C50.9076 6.17316 51.2042 5.99427 51.527 5.8778C51.8497 5.76133 52.1922 5.70957 52.5349 5.72546ZM44.4306 25.3605C44.0346 24.5355 43.5616 24.0405 43.1766 23.7737C42.0986 23.0285 40.9161 23.375 40.3799 24.1972C40.1172 24.6158 40.0272 25.1201 40.1287 25.6037C40.2303 26.0874 40.5155 26.5128 40.9244 26.7905C41.2544 27.0105 41.6751 27.1205 42.2334 26.9637C42.7394 26.8207 43.5121 26.411 44.4306 25.3605Z" fill="url(#paint25_radial_2417_4976)"/>
    <path fill-rule="evenodd" clip-rule="evenodd" d="M52.5349 5.72546C52.8778 5.74134 53.2143 5.82466 53.525 5.97067C53.8358 6.11667 54.1147 6.32249 54.3458 6.57636C54.577 6.83023 54.7558 7.12717 54.8721 7.4502C54.9884 7.77323 55.0399 8.11602 55.0236 8.45896C54.8538 11.4327 54.4129 14.3847 53.7064 17.2782C52.9859 20.2317 51.8776 23.5042 50.1699 26.312C50.5824 28.501 50.5934 31.0832 50.1396 34.0202C50.0339 34.7051 49.6604 35.3199 49.1013 35.7293C48.5423 36.1388 47.8435 36.3095 47.1586 36.2037C46.4738 36.098 45.859 35.7245 45.4495 35.1654C45.04 34.6064 44.8694 33.9076 44.9751 33.2227C45.0769 32.5682 45.1484 31.9522 45.1951 31.3747C44.6994 31.6356 44.1777 31.8439 43.6386 31.9962C42.6975 32.2708 41.7077 32.3363 40.7387 32.1881C39.7696 32.0399 38.8446 31.6816 38.0286 31.1382C35.0751 29.172 33.7139 24.8682 35.9991 21.3482C38.1716 18.0042 42.7036 17.094 46.1466 19.4755C46.5454 19.7505 46.9166 20.0585 47.2659 20.4022C47.8159 19.0135 48.2669 17.5285 48.6299 16.0407C49.4026 12.8727 49.7244 9.90271 49.8041 8.21421C49.82 7.87149 49.9032 7.53526 50.0491 7.22471C50.1949 6.91415 50.4005 6.63537 50.654 6.40426C50.9076 6.17316 51.2042 5.99427 51.527 5.8778C51.8497 5.76133 52.1922 5.70957 52.5349 5.72546ZM44.4306 25.3605C44.0346 24.5355 43.5616 24.0405 43.1766 23.7737C42.0986 23.0285 40.9161 23.375 40.3799 24.1972C40.1172 24.6158 40.0272 25.1201 40.1287 25.6037C40.2303 26.0874 40.5155 26.5128 40.9244 26.7905C41.2544 27.0105 41.6751 27.1205 42.2334 26.9637C42.7394 26.8207 43.5121 26.411 44.4306 25.3605Z" fill="url(#paint26_radial_2417_4976)"/>
    <path fill-rule="evenodd" clip-rule="evenodd" d="M52.5349 5.72546C52.8778 5.74134 53.2143 5.82466 53.525 5.97067C53.8358 6.11667 54.1147 6.32249 54.3458 6.57636C54.577 6.83023 54.7558 7.12717 54.8721 7.4502C54.9884 7.77323 55.0399 8.11602 55.0236 8.45896C54.8538 11.4327 54.4129 14.3847 53.7064 17.2782C52.9859 20.2317 51.8776 23.5042 50.1699 26.312C50.5824 28.501 50.5934 31.0832 50.1396 34.0202C50.0339 34.7051 49.6604 35.3199 49.1013 35.7293C48.5423 36.1388 47.8435 36.3095 47.1586 36.2037C46.4738 36.098 45.859 35.7245 45.4495 35.1654C45.04 34.6064 44.8694 33.9076 44.9751 33.2227C45.0769 32.5682 45.1484 31.9522 45.1951 31.3747C44.6994 31.6356 44.1777 31.8439 43.6386 31.9962C42.6975 32.2708 41.7077 32.3363 40.7387 32.1881C39.7696 32.0399 38.8446 31.6816 38.0286 31.1382C35.0751 29.172 33.7139 24.8682 35.9991 21.3482C38.1716 18.0042 42.7036 17.094 46.1466 19.4755C46.5454 19.7505 46.9166 20.0585 47.2659 20.4022C47.8159 19.0135 48.2669 17.5285 48.6299 16.0407C49.4026 12.8727 49.7244 9.90271 49.8041 8.21421C49.82 7.87149 49.9032 7.53526 50.0491 7.22471C50.1949 6.91415 50.4005 6.63537 50.654 6.40426C50.9076 6.17316 51.2042 5.99427 51.527 5.8778C51.8497 5.76133 52.1922 5.70957 52.5349 5.72546ZM44.4306 25.3605C44.0346 24.5355 43.5616 24.0405 43.1766 23.7737C42.0986 23.0285 40.9161 23.375 40.3799 24.1972C40.1172 24.6158 40.0272 25.1201 40.1287 25.6037C40.2303 26.0874 40.5155 26.5128 40.9244 26.7905C41.2544 27.0105 41.6751 27.1205 42.2334 26.9637C42.7394 26.8207 43.5121 26.411 44.4306 25.3605Z" fill="url(#paint27_radial_2417_4976)"/>
    <path fill-rule="evenodd" clip-rule="evenodd" d="M38.0662 62.1671C36.0485 61.0428 34.1057 59.7889 32.25 58.4134C35.2365 54.7091 40.5743 49.8526 47.5318 46.3464C58.9635 40.5824 71.5695 43.7091 76.7092 45.7469C77.1289 45.9134 77.5116 46.1609 77.8356 46.4753C78.1596 46.7897 78.4185 47.1648 78.5975 47.5792C78.7765 47.9937 78.8721 48.4393 78.8789 48.8908C78.8857 49.3422 78.8035 49.7905 78.637 50.2101C78.4705 50.6298 78.223 51.0125 77.9086 51.3365C77.5942 51.6605 77.2191 51.9194 76.8046 52.0984C76.3902 52.2774 75.9445 52.373 75.4931 52.3798C75.0417 52.3865 74.5934 52.3044 74.1737 52.1379C69.771 50.3916 59.475 48.0239 50.6255 52.4844C44.79 55.4269 40.4505 59.3814 38.0662 62.1671Z" fill="url(#paint28_linear_2417_4976)"/>
    <path fill-rule="evenodd" clip-rule="evenodd" d="M38.0662 62.1671C36.0485 61.0428 34.1057 59.7889 32.25 58.4134C35.2365 54.7091 40.5743 49.8526 47.5318 46.3464C58.9635 40.5824 71.5695 43.7091 76.7092 45.7469C77.1289 45.9134 77.5116 46.1609 77.8356 46.4753C78.1596 46.7897 78.4185 47.1648 78.5975 47.5792C78.7765 47.9937 78.8721 48.4393 78.8789 48.8908C78.8857 49.3422 78.8035 49.7905 78.637 50.2101C78.4705 50.6298 78.223 51.0125 77.9086 51.3365C77.5942 51.6605 77.2191 51.9194 76.8046 52.0984C76.3902 52.2774 75.9445 52.373 75.4931 52.3798C75.0417 52.3865 74.5934 52.3044 74.1737 52.1379C69.771 50.3916 59.475 48.0239 50.6255 52.4844C44.79 55.4269 40.4505 59.3814 38.0662 62.1671Z" fill="url(#paint29_radial_2417_4976)"/>
    <path fill-rule="evenodd" clip-rule="evenodd" d="M38.0662 62.1671C36.0485 61.0428 34.1057 59.7889 32.25 58.4134C35.2365 54.7091 40.5743 49.8526 47.5318 46.3464C58.9635 40.5824 71.5695 43.7091 76.7092 45.7469C77.1289 45.9134 77.5116 46.1609 77.8356 46.4753C78.1596 46.7897 78.4185 47.1648 78.5975 47.5792C78.7765 47.9937 78.8721 48.4393 78.8789 48.8908C78.8857 49.3422 78.8035 49.7905 78.637 50.2101C78.4705 50.6298 78.223 51.0125 77.9086 51.3365C77.5942 51.6605 77.2191 51.9194 76.8046 52.0984C76.3902 52.2774 75.9445 52.373 75.4931 52.3798C75.0417 52.3865 74.5934 52.3044 74.1737 52.1379C69.771 50.3916 59.475 48.0239 50.6255 52.4844C44.79 55.4269 40.4505 59.3814 38.0662 62.1671Z" fill="url(#paint30_radial_2417_4976)"/>
    <path fill-rule="evenodd" clip-rule="evenodd" d="M38.0662 62.1671C36.0485 61.0428 34.1057 59.7889 32.25 58.4134C35.2365 54.7091 40.5743 49.8526 47.5318 46.3464C58.9635 40.5824 71.5695 43.7091 76.7092 45.7469C77.1289 45.9134 77.5116 46.1609 77.8356 46.4753C78.1596 46.7897 78.4185 47.1648 78.5975 47.5792C78.7765 47.9937 78.8721 48.4393 78.8789 48.8908C78.8857 49.3422 78.8035 49.7905 78.637 50.2101C78.4705 50.6298 78.223 51.0125 77.9086 51.3365C77.5942 51.6605 77.2191 51.9194 76.8046 52.0984C76.3902 52.2774 75.9445 52.373 75.4931 52.3798C75.0417 52.3865 74.5934 52.3044 74.1737 52.1379C69.771 50.3916 59.475 48.0239 50.6255 52.4844C44.79 55.4269 40.4505 59.3814 38.0662 62.1671Z" fill="url(#paint31_radial_2417_4976)"/>
    <g filter="url(#filter4_d_2417_4976)">
        <path fill-rule="evenodd" clip-rule="evenodd" d="M28.0273 18.2949C27.8076 17.9003 27.5123 17.5529 27.1583 17.2725C26.8043 16.9921 26.3985 16.7842 25.9641 16.6606C25.5298 16.537 25.0753 16.5002 24.6267 16.5522C24.1781 16.6042 23.7441 16.7441 23.3496 16.9639C22.9551 17.1836 22.6077 17.4789 22.3272 17.833C22.0468 18.187 21.8389 18.5927 21.7153 19.0271C21.5917 19.4615 21.5549 19.9159 21.6069 20.3645C21.659 20.8131 21.7988 21.2471 22.0186 21.6416C23.4128 24.1441 25.1288 27.6834 25.3488 32.2374C25.5413 36.2056 24.6063 41.2381 20.8086 47.2771C22.2505 49.1656 23.8267 50.9476 25.5248 52.6094C30.8818 44.8186 32.5016 37.8391 32.2156 31.9046C31.9213 25.7721 29.5976 21.1191 28.0273 18.2949Z" fill="url(#paint32_radial_2417_4976)"/>
        <path fill-rule="evenodd" clip-rule="evenodd" d="M28.0273 18.2949C27.8076 17.9003 27.5123 17.5529 27.1583 17.2725C26.8043 16.9921 26.3985 16.7842 25.9641 16.6606C25.5298 16.537 25.0753 16.5002 24.6267 16.5522C24.1781 16.6042 23.7441 16.7441 23.3496 16.9639C22.9551 17.1836 22.6077 17.4789 22.3272 17.833C22.0468 18.187 21.8389 18.5927 21.7153 19.0271C21.5917 19.4615 21.5549 19.9159 21.6069 20.3645C21.659 20.8131 21.7988 21.2471 22.0186 21.6416C23.4128 24.1441 25.1288 27.6834 25.3488 32.2374C25.5413 36.2056 24.6063 41.2381 20.8086 47.2771C22.2505 49.1656 23.8267 50.9476 25.5248 52.6094C30.8818 44.8186 32.5016 37.8391 32.2156 31.9046C31.9213 25.7721 29.5976 21.1191 28.0273 18.2949Z" fill="url(#paint33_radial_2417_4976)"/>
    </g>
    <path d="M35.3516 22.5793C35.5193 22.164 35.7366 21.7515 35.9951 21.35C38.1676 18.0033 42.6996 17.093 46.1426 19.4745C46.5413 19.7495 46.9126 20.0575 47.2618 20.4013C47.3718 20.118 47.4818 19.8293 47.5863 19.5378L47.6001 19.5928C46.8933 21.8203 45.3066 24.2073 44.4238 25.3568C44.0278 24.5318 43.5576 24.0368 43.1726 23.7728C42.0946 23.0275 40.9093 23.374 40.3758 24.1963C40.3555 24.2277 40.3363 24.2598 40.3181 24.2925L35.3516 22.5793Z" fill="url(#paint34_radial_2417_4976)"/>
    <path d="M35.3516 22.5793C35.5193 22.164 35.7366 21.7515 35.9951 21.35C38.1676 18.0033 42.6996 17.093 46.1426 19.4745C46.5413 19.7495 46.9126 20.0575 47.2618 20.4013C47.3718 20.118 47.4818 19.8293 47.5863 19.5378L47.6001 19.5928C46.8933 21.8203 45.3066 24.2073 44.4238 25.3568C44.0278 24.5318 43.5576 24.0368 43.1726 23.7728C42.0946 23.0275 40.9093 23.374 40.3758 24.1963C40.3555 24.2277 40.3363 24.2598 40.3181 24.2925L35.3516 22.5793Z" fill="url(#paint35_radial_2417_4976)"/>
    <g filter="url(#filter5_d_2417_4976)">
        <path d="M50.1668 26.3125C50.5793 28.5015 50.5903 31.0865 50.1365 34.0208C50.0308 34.7056 49.6573 35.3204 49.0982 35.7299C48.5392 36.1394 47.8404 36.31 47.1555 36.2043C46.4707 36.0985 45.8559 35.725 45.4464 35.166C45.0369 34.6069 44.8663 33.9081 44.972 33.2233C45.0738 32.5688 45.1453 31.9555 45.192 31.3808C47.8925 29.684 49.6745 27.429 50.1668 26.3125Z" fill="#44B6FF"/>
    </g>
    <path d="M50.1668 26.3125C50.5793 28.5015 50.5903 31.0865 50.1365 34.0208C50.0308 34.7056 49.6573 35.3204 49.0982 35.7299C48.5392 36.1394 47.8404 36.31 47.1555 36.2043C46.4707 36.0985 45.8559 35.725 45.4464 35.166C45.0369 34.6069 44.8663 33.9081 44.972 33.2233C45.0738 32.5688 45.1453 31.9555 45.192 31.3808C47.8925 29.684 49.6745 27.429 50.1668 26.3125Z" fill="url(#paint36_radial_2417_4976)"/>
    <g filter="url(#filter6_f_2417_4976)">
        <path d="M45.5114 22.4722C44.7799 21.4822 42.4369 19.7222 39.4944 21.5482C38.5071 22.1614 37.9269 24.4687 38.3779 26.0389" stroke="url(#paint37_linear_2417_4976)" stroke-width="0.3" stroke-linecap="round"/>
    </g>
    <g filter="url(#filter7_f_2417_4976)">
        <path d="M53.5482 8.29492C53.3172 12.4474 51.5188 22.2512 46.1562 28.2324" stroke="url(#paint38_linear_2417_4976)" stroke-width="0.3" stroke-linecap="round"/>
    </g>
    <defs>
        <filter id="filter0_d_2417_4976" x="6.07812" y="31.9824" width="49.1953" height="50.9082" filterUnits="userSpaceOnUse" color-interpolation-filters="sRGB">
            <feFlood flood-opacity="0" result="BackgroundImageFix"/>
            <feColorMatrix in="SourceAlpha" type="matrix" values="0 0 0 0 0 0 0 0 0 0 0 0 0 0 0 0 0 0 127 0" result="hardAlpha"/>
            <feOffset dy="-0.5"/>
            <feGaussianBlur stdDeviation="0.5"/>
            <feComposite in2="hardAlpha" operator="out"/>
            <feColorMatrix type="matrix" values="0 0 0 0 0.92549 0 0 0 0 0.34902 0 0 0 0 0.384314 0 0 0 1 0"/>
            <feBlend mode="normal" in2="BackgroundImageFix" result="effect1_dropShadow_2417_4976"/>
            <feBlend mode="normal" in="SourceGraphic" in2="effect1_dropShadow_2417_4976" result="shape"/>
        </filter>
        <filter id="filter1_f_2417_4976" x="13.7891" y="33.6367" width="40.0547" height="35.1562" filterUnits="userSpaceOnUse" color-interpolation-filters="sRGB">
            <feFlood flood-opacity="0" result="BackgroundImageFix"/>
            <feBlend mode="normal" in="SourceGraphic" in2="BackgroundImageFix" result="shape"/>
            <feGaussianBlur stdDeviation="0.25" result="effect1_foregroundBlur_2417_4976"/>
        </filter>
        <filter id="filter2_f_2417_4976" x="16.382" y="34.2414" width="36.2867" height="31.5426" filterUnits="userSpaceOnUse" color-interpolation-filters="sRGB">
            <feFlood flood-opacity="0" result="BackgroundImageFix"/>
            <feBlend mode="normal" in="SourceGraphic" in2="BackgroundImageFix" result="shape"/>
            <feGaussianBlur stdDeviation="0.1" result="effect1_foregroundBlur_2417_4976"/>
        </filter>
        <filter id="filter3_d_2417_4976" x="53.8281" y="29.0508" width="27.0117" height="12.8672" filterUnits="userSpaceOnUse" color-interpolation-filters="sRGB">
            <feFlood flood-opacity="0" result="BackgroundImageFix"/>
            <feColorMatrix in="SourceAlpha" type="matrix" values="0 0 0 0 0 0 0 0 0 0 0 0 0 0 0 0 0 0 127 0" result="hardAlpha"/>
            <feOffset dx="0.25" dy="-0.25"/>
            <feGaussianBlur stdDeviation="0.25"/>
            <feComposite in2="hardAlpha" operator="out"/>
            <feColorMatrix type="matrix" values="0 0 0 0 0.721569 0 0 0 0 0.270588 0 0 0 0 0.470588 0 0 0 1 0"/>
            <feBlend mode="normal" in2="BackgroundImageFix" result="effect1_dropShadow_2417_4976"/>
            <feBlend mode="normal" in="SourceGraphic" in2="effect1_dropShadow_2417_4976" result="shape"/>
        </filter>
        <filter id="filter4_d_2417_4976" x="19.9586" y="15.7793" width="13.4375" height="38.0801" filterUnits="userSpaceOnUse" color-interpolation-filters="sRGB">
            <feFlood flood-opacity="0" result="BackgroundImageFix"/>
            <feColorMatrix in="SourceAlpha" type="matrix" values="0 0 0 0 0 0 0 0 0 0 0 0 0 0 0 0 0 0 127 0" result="hardAlpha"/>
            <feOffset dx="0.15" dy="0.25"/>
            <feGaussianBlur stdDeviation="0.5"/>
            <feComposite in2="hardAlpha" operator="out"/>
            <feColorMatrix type="matrix" values="0 0 0 0 0.721569 0 0 0 0 0.184314 0 0 0 0 0.447059 0 0 0 1 0"/>
            <feBlend mode="normal" in2="BackgroundImageFix" result="effect1_dropShadow_2417_4976"/>
            <feBlend mode="normal" in="SourceGraphic" in2="effect1_dropShadow_2417_4976" result="shape"/>
        </filter>
        <filter id="filter5_d_2417_4976" x="44.7914" y="25.4125" width="6.83516" height="11.2219" filterUnits="userSpaceOnUse" color-interpolation-filters="sRGB">
            <feFlood flood-opacity="0" result="BackgroundImageFix"/>
            <feColorMatrix in="SourceAlpha" type="matrix" values="0 0 0 0 0 0 0 0 0 0 0 0 0 0 0 0 0 0 127 0" result="hardAlpha"/>
            <feOffset dx="0.5" dy="-0.25"/>
            <feGaussianBlur stdDeviation="0.325"/>
            <feComposite in2="hardAlpha" operator="out"/>
            <feColorMatrix type="matrix" values="0 0 0 0 0.239216 0 0 0 0 0.439216 0 0 0 0 0.768627 0 0 0 1 0"/>
            <feBlend mode="normal" in2="BackgroundImageFix" result="effect1_dropShadow_2417_4976"/>
            <feBlend mode="normal" in="SourceGraphic" in2="effect1_dropShadow_2417_4976" result="shape"/>
        </filter>
        <filter id="filter6_f_2417_4976" x="37.7742" y="20.3035" width="8.18594" height="6.18594" filterUnits="userSpaceOnUse" color-interpolation-filters="sRGB">
            <feFlood flood-opacity="0" result="BackgroundImageFix"/>
            <feBlend mode="normal" in="SourceGraphic" in2="BackgroundImageFix" result="shape"/>
            <feGaussianBlur stdDeviation="0.15" result="effect1_foregroundBlur_2417_4976"/>
        </filter>
        <filter id="filter7_f_2417_4976" x="45.5578" y="7.69453" width="8.59141" height="21.1383" filterUnits="userSpaceOnUse" color-interpolation-filters="sRGB">
            <feFlood flood-opacity="0" result="BackgroundImageFix"/>
            <feBlend mode="normal" in="SourceGraphic" in2="BackgroundImageFix" result="shape"/>
            <feGaussianBlur stdDeviation="0.225" result="effect1_foregroundBlur_2417_4976"/>
        </filter>
        <linearGradient id="paint0_linear_2417_4976" x1="11.6098" y1="54.9557" x2="33.7803" y2="74.2057" gradientUnits="userSpaceOnUse">
            <stop stop-color="#B3843C"/>
            <stop offset="1" stop-color="#F17A61"/>
        </linearGradient>
        <linearGradient id="paint1_linear_2417_4976" x1="9.15959" y1="57.9367" x2="15.6468" y2="59.254" gradientUnits="userSpaceOnUse">
            <stop stop-color="#B1853B"/>
            <stop offset="1" stop-color="#B1853B" stop-opacity="0"/>
        </linearGradient>
        <linearGradient id="paint2_linear_2417_4976" x1="54.2733" y1="65.5267" x2="43.3201" y2="67.3307" gradientUnits="userSpaceOnUse">
            <stop stop-color="#F9C26C"/>
            <stop offset="1" stop-color="#F9C26C" stop-opacity="0"/>
        </linearGradient>
        <linearGradient id="paint3_linear_2417_4976" x1="30.6756" y1="34.075" x2="23.6411" y2="46.0182" gradientUnits="userSpaceOnUse">
            <stop stop-color="#E6BF69"/>
            <stop offset="1" stop-color="#E6BF69" stop-opacity="0"/>
        </linearGradient>
        <linearGradient id="paint4_linear_2417_4976" x1="28.2779" y1="57.983" x2="42.5526" y2="45.2428" gradientUnits="userSpaceOnUse">
            <stop stop-color="#FCCB57"/>
            <stop offset="1" stop-color="#F5BD55"/>
        </linearGradient>
        <linearGradient id="paint5_linear_2417_4976" x1="19.4283" y1="36.3069" x2="52.8588" y2="66.986" gradientUnits="userSpaceOnUse">
            <stop stop-color="#F3AB2C"/>
            <stop offset="1" stop-color="#B57F1E"/>
        </linearGradient>
        <radialGradient id="paint6_radial_2417_4976" cx="0" cy="0" r="1" gradientUnits="userSpaceOnUse" gradientTransform="translate(21.7524 47.7377) rotate(-69.379) scale(17.8131 4.98924)">
            <stop offset="0.423" stop-color="#CA851E"/>
            <stop offset="1" stop-color="#CA851E" stop-opacity="0"/>
        </radialGradient>
        <radialGradient id="paint7_radial_2417_4976" cx="0" cy="0" r="1" gradientUnits="userSpaceOnUse" gradientTransform="translate(35.9308 59.8549) rotate(-33.3512) scale(17.9012 10.4831)">
            <stop stop-color="#BC7F28"/>
            <stop offset="1" stop-color="#BC7F28" stop-opacity="0"/>
        </radialGradient>
        <radialGradient id="paint8_radial_2417_4976" cx="0" cy="0" r="1" gradientUnits="userSpaceOnUse" gradientTransform="translate(42.59 43.0984) rotate(138.668) scale(4.74955)">
            <stop stop-color="#5AC0FF"/>
            <stop offset="1" stop-color="#3279B6"/>
        </radialGradient>
        <radialGradient id="paint9_radial_2417_4976" cx="0" cy="0" r="1" gradientUnits="userSpaceOnUse" gradientTransform="translate(41.7803 43.5432) rotate(160.051) scale(4.76957 5.22806)">
            <stop offset="0.535" stop-color="#3A619E" stop-opacity="0"/>
            <stop offset="1" stop-color="#3A619E"/>
        </radialGradient>
        <radialGradient id="paint10_radial_2417_4976" cx="0" cy="0" r="1" gradientUnits="userSpaceOnUse" gradientTransform="translate(70.2018 61.5928) rotate(134.569) scale(5.43821)">
            <stop stop-color="#FDD46C"/>
            <stop offset="1" stop-color="#F09C53"/>
        </radialGradient>
        <radialGradient id="paint11_radial_2417_4976" cx="0" cy="0" r="1" gradientUnits="userSpaceOnUse" gradientTransform="translate(68.8979 61.3075) rotate(100.827) scale(5.38678)">
            <stop offset="0.792" stop-color="#E76260" stop-opacity="0"/>
            <stop offset="0.964" stop-color="#E76260"/>
        </radialGradient>
        <radialGradient id="paint12_radial_2417_4976" cx="0" cy="0" r="1" gradientUnits="userSpaceOnUse" gradientTransform="translate(69.8633 63.5391) rotate(-147.558) scale(5.45519 6.42424)">
            <stop offset="0.482" stop-color="#AA885A" stop-opacity="0"/>
            <stop offset="0.907" stop-color="#AA885A"/>
        </radialGradient>
        <radialGradient id="paint13_radial_2417_4976" cx="0" cy="0" r="1" gradientUnits="userSpaceOnUse" gradientTransform="translate(67.8809 18.006) rotate(132.387) scale(5.66533)">
            <stop stop-color="#FF46AA"/>
            <stop offset="1" stop-color="#E3189D"/>
        </radialGradient>
        <radialGradient id="paint14_radial_2417_4976" cx="0" cy="0" r="1" gradientUnits="userSpaceOnUse" gradientTransform="translate(66.9084 19.8941) rotate(-173.29) scale(5.14856 6.89038)">
            <stop offset="0.522" stop-color="#B63173" stop-opacity="0"/>
            <stop offset="1" stop-color="#B63173"/>
        </radialGradient>
        <radialGradient id="paint15_radial_2417_4976" cx="0" cy="0" r="1" gradientUnits="userSpaceOnUse" gradientTransform="translate(29.6416 7.9354) rotate(139.574) scale(5.06325)">
            <stop stop-color="#FFF46F"/>
            <stop offset="1" stop-color="#EFB93C"/>
        </radialGradient>
        <radialGradient id="paint16_radial_2417_4976" cx="0" cy="0" r="1" gradientUnits="userSpaceOnUse" gradientTransform="translate(28.9172 8.72291) rotate(-178.519) scale(5.26526 5.01317)">
            <stop offset="0.559" stop-color="#AA904B" stop-opacity="0"/>
            <stop offset="0.944" stop-color="#AA904B"/>
        </radialGradient>
        <radialGradient id="paint17_radial_2417_4976" cx="0" cy="0" r="1" gradientUnits="userSpaceOnUse" gradientTransform="translate(28.326 7.39217) rotate(102.339) scale(5.63005)">
            <stop offset="0.772" stop-color="#C47072" stop-opacity="0"/>
            <stop offset="1" stop-color="#C47072"/>
        </radialGradient>
        <radialGradient id="paint18_radial_2417_4976" cx="0" cy="0" r="1" gradientUnits="userSpaceOnUse" gradientTransform="translate(15.924 21.0135) rotate(132.387) scale(5.66533)">
            <stop stop-color="#FF46AA"/>
            <stop offset="1" stop-color="#E3189D"/>
        </radialGradient>
        <radialGradient id="paint19_radial_2417_4976" cx="0" cy="0" r="1" gradientUnits="userSpaceOnUse" gradientTransform="translate(14.9474 22.9027) rotate(-173.29) scale(5.14856 6.89038)">
            <stop offset="0.522" stop-color="#B63173" stop-opacity="0"/>
            <stop offset="1" stop-color="#B63173"/>
        </radialGradient>
        <radialGradient id="paint20_radial_2417_4976" cx="0" cy="0" r="1" gradientUnits="userSpaceOnUse" gradientTransform="translate(30.86 68.9641) rotate(133.21) scale(11.6729 25.5571)">
            <stop stop-color="#3365FF"/>
            <stop offset="1" stop-color="#356DB9"/>
        </radialGradient>
        <radialGradient id="paint21_radial_2417_4976" cx="0" cy="0" r="1" gradientUnits="userSpaceOnUse" gradientTransform="translate(20.3754 77.044) rotate(131.598) scale(7.20547 18.2268)">
            <stop stop-color="#3365FF"/>
            <stop offset="1" stop-color="#356DB9"/>
        </radialGradient>
        <radialGradient id="paint22_radial_2417_4976" cx="0" cy="0" r="1" gradientUnits="userSpaceOnUse" gradientTransform="translate(75.72 32.6991) rotate(168.283) scale(11.8485 4.4204)">
            <stop stop-color="#FF3BA9"/>
            <stop offset="1" stop-color="#F422A7"/>
        </radialGradient>
        <radialGradient id="paint23_radial_2417_4976" cx="0" cy="0" r="1" gradientUnits="userSpaceOnUse" gradientTransform="translate(67.1483 42.1504) rotate(-127.355) scale(12.2166 21.7725)">
            <stop offset="0.752" stop-color="#B8306F" stop-opacity="0"/>
            <stop offset="1" stop-color="#B8306F"/>
        </radialGradient>
        <linearGradient id="paint24_linear_2417_4976" x1="52.4194" y1="5.72271" x2="40.0939" y2="35.2632" gradientUnits="userSpaceOnUse">
            <stop stop-color="#20B2EE"/>
            <stop offset="1" stop-color="#2689DA"/>
        </linearGradient>
        <radialGradient id="paint25_radial_2417_4976" cx="0" cy="0" r="1" gradientUnits="userSpaceOnUse" gradientTransform="translate(49.7137 15.3203) rotate(128.217) scale(21.3418 13.0543)">
            <stop offset="0.802" stop-color="#4274D2" stop-opacity="0"/>
            <stop offset="0.951" stop-color="#4274D2"/>
        </radialGradient>
        <radialGradient id="paint26_radial_2417_4976" cx="0" cy="0" r="1" gradientUnits="userSpaceOnUse" gradientTransform="translate(48.6464 12.848) rotate(12.095) scale(3.0761 10.3267)">
            <stop stop-color="#4D8EC0"/>
            <stop offset="1" stop-color="#4D8EC0" stop-opacity="0"/>
        </radialGradient>
        <radialGradient id="paint27_radial_2417_4976" cx="0" cy="0" r="1" gradientUnits="userSpaceOnUse" gradientTransform="translate(54.7514 6.18746) rotate(141.953) scale(3.76487 3.38485)">
            <stop stop-color="#5ADEFF"/>
            <stop offset="1" stop-color="#5ADEFF" stop-opacity="0"/>
        </radialGradient>
        <linearGradient id="paint28_linear_2417_4976" x1="39.7382" y1="59.6619" x2="76.6157" y2="49.9984" gradientUnits="userSpaceOnUse">
            <stop stop-color="#3797E2"/>
            <stop offset="1" stop-color="#37AEFF"/>
        </linearGradient>
        <radialGradient id="paint29_radial_2417_4976" cx="0" cy="0" r="1" gradientUnits="userSpaceOnUse" gradientTransform="translate(53.3792 65.6888) rotate(-129.838) scale(21.9451 55.0099)">
            <stop offset="0.623" stop-color="#526579" stop-opacity="0"/>
            <stop offset="0.962" stop-color="#526579"/>
        </radialGradient>
        <radialGradient id="paint30_radial_2417_4976" cx="0" cy="0" r="1" gradientUnits="userSpaceOnUse" gradientTransform="translate(65.7037 53.8456) rotate(94.399) scale(7.5328 15.1448)">
            <stop offset="0.396" stop-color="#6972FF"/>
            <stop offset="1" stop-color="#6972FF" stop-opacity="0"/>
        </radialGradient>
        <radialGradient id="paint31_radial_2417_4976" cx="0" cy="0" r="1" gradientUnits="userSpaceOnUse" gradientTransform="translate(76.8742 47.5179) rotate(-68.8191) scale(2.06535 1.62875)">
            <stop stop-color="#55BFFF"/>
            <stop offset="1" stop-color="#55BFFF" stop-opacity="0"/>
        </radialGradient>
        <radialGradient id="paint32_radial_2417_4976" cx="0" cy="0" r="1" gradientUnits="userSpaceOnUse" gradientTransform="translate(29.8203 17.6981) rotate(99.4229) scale(20.1076 7.53308)">
            <stop stop-color="#FF3AAA"/>
            <stop offset="1" stop-color="#FD2F89"/>
        </radialGradient>
        <radialGradient id="paint33_radial_2417_4976" cx="0" cy="0" r="1" gradientUnits="userSpaceOnUse" gradientTransform="translate(19.3202 38.4338) rotate(31.176) scale(13.2232 41.4983)">
            <stop offset="0.804" stop-color="#DB2C6E" stop-opacity="0"/>
            <stop offset="1" stop-color="#DB2C6E"/>
        </radialGradient>
        <radialGradient id="paint34_radial_2417_4976" cx="0" cy="0" r="1" gradientUnits="userSpaceOnUse" gradientTransform="translate(45.1515 26.1762) rotate(-119.23) scale(7.53043 5.62906)">
            <stop stop-color="#336BAF"/>
            <stop offset="1" stop-color="#336BAF" stop-opacity="0"/>
        </radialGradient>
        <radialGradient id="paint35_radial_2417_4976" cx="0" cy="0" r="1" gradientUnits="userSpaceOnUse" gradientTransform="translate(47.6028 20.4948) rotate(-127.657) scale(5.10156 2.06691)">
            <stop stop-color="#49A4D4"/>
            <stop offset="1" stop-color="#49A4D4" stop-opacity="0"/>
        </radialGradient>
        <radialGradient id="paint36_radial_2417_4976" cx="0" cy="0" r="1" gradientUnits="userSpaceOnUse" gradientTransform="translate(49.8973 26.0843) rotate(94.8501) scale(7.11533 3.95999)">
            <stop stop-color="#4AB5F8"/>
            <stop offset="1" stop-color="#4AB5F8" stop-opacity="0"/>
        </radialGradient>
        <linearGradient id="paint37_linear_2417_4976" x1="37.3906" y1="22.5189" x2="45.0384" y2="20.6462" gradientUnits="userSpaceOnUse">
            <stop stop-color="#4EAFF2"/>
            <stop offset="1" stop-color="#4EAFF2" stop-opacity="0"/>
        </linearGradient>
        <linearGradient id="paint38_linear_2417_4976" x1="52.946" y1="5.37167" x2="42.2045" y2="30.1217" gradientUnits="userSpaceOnUse">
            <stop stop-color="#5BDDFF"/>
            <stop offset="1" stop-color="#5BDDFF" stop-opacity="0"/>
        </linearGradient>
    </defs>
</svg>
