<svg width="24" height="24" viewBox="0 0 24 24" fill="none" xmlns="http://www.w3.org/2000/svg">
    <g clip-path="url(#clip0_588_6616)">
        <path d="M1 22.0001C1 19.8783 1.84285 17.8435 3.34315 16.3432C4.84344 14.8429 6.87827 14.0001 9 14.0001C11.1217 14.0001 13.1566 14.8429 14.6569 16.3432C16.1571 17.8435 17 19.8783 17 22.0001H15C15 20.4088 14.3679 18.8826 13.2426 17.7574C12.1174 16.6322 10.5913 16.0001 9 16.0001C7.4087 16.0001 5.88258 16.6322 4.75736 17.7574C3.63214 18.8826 3 20.4088 3 22.0001H1ZM9 13.0001C5.685 13.0001 3 10.3151 3 7.00006C3 3.68506 5.685 1.00006 9 1.00006C12.315 1.00006 15 3.68506 15 7.00006C15 10.3151 12.315 13.0001 9 13.0001ZM9 11.0001C11.21 11.0001 13 9.21006 13 7.00006C13 4.79006 11.21 3.00006 9 3.00006C6.79 3.00006 5 4.79006 5 7.00006C5 9.21006 6.79 11.0001 9 11.0001ZM21.548 0.784058C22.5062 2.71589 23.0032 4.84365 23 7.00006C23 9.23306 22.477 11.3441 21.548 13.2161L19.903 12.0201C20.6282 10.446 21.0025 8.73312 21 7.00006C21 5.20806 20.607 3.50706 19.903 1.98006L21.548 0.784058ZM18.246 3.18406C18.7454 4.39422 19.0016 5.69089 19 7.00006C19.0016 8.30923 18.7454 9.6059 18.246 10.8161L16.569 9.59606C16.8552 8.76049 17.0008 7.88326 17 7.00006C17.0011 6.11691 16.8558 5.23968 16.57 4.40406L18.246 3.18406Z" fill="#FF6433"/>
    </g>
    <defs>
        <clipPath id="clip0_588_6616">
            <rect width="24" height="24" fill="white"/>
        </clipPath>
    </defs>
</svg>
