<svg width="24" height="24" viewBox="0 0 24 24" fill="none" xmlns="http://www.w3.org/2000/svg">
    <g clip-path="url(#clip0_588_6604)">
        <path d="M12.9999 21V23H10.9999V21H2.99988C2.73466 21 2.48031 20.8946 2.29277 20.7071C2.10523 20.5196 1.99988 20.2652 1.99988 20V4C1.99988 3.73479 2.10523 3.48043 2.29277 3.2929C2.48031 3.10536 2.73466 3 2.99988 3H8.99988C9.56746 2.99933 10.1287 3.11976 10.646 3.35325C11.1633 3.58674 11.6249 3.92792 11.9999 4.354C12.3749 3.92792 12.8364 3.58674 13.3538 3.35325C13.8711 3.11976 14.4323 2.99933 14.9999 3H20.9999C21.2651 3 21.5194 3.10536 21.707 3.2929C21.8945 3.48043 21.9999 3.73479 21.9999 4V20C21.9999 20.2652 21.8945 20.5196 21.707 20.7071C21.5194 20.8946 21.2651 21 20.9999 21H12.9999ZM19.9999 19V5H14.9999C14.4694 5 13.9607 5.21072 13.5857 5.58579C13.2106 5.96086 12.9999 6.46957 12.9999 7V19H19.9999ZM10.9999 19V7C10.9999 6.46957 10.7892 5.96086 10.4141 5.58579C10.039 5.21072 9.53031 5 8.99988 5H3.99988V19H10.9999Z" fill="#FF6433"/>
    </g>
    <defs>
        <clipPath id="clip0_588_6604">
            <rect width="24" height="24" fill="white"/>
        </clipPath>
    </defs>
</svg>
