<svg width="24" height="24" viewBox="0 0 24 24" fill="none" xmlns="http://www.w3.org/2000/svg">
<path d="M6 17L6 7M18 7L18 17" stroke="#FBBC05" stroke-width="1.5" stroke-linecap="round" stroke-linejoin="round"/>
<path d="M18 17C18 18.6569 15.3137 20 12 20C8.68629 20 6 18.6569 6 17" stroke="#FBBC05" stroke-width="1.5" stroke-linecap="round" stroke-linejoin="round"/>
<path d="M18 12C18 13.6569 15.3137 15 12 15C8.68629 15 6 13.6569 6 12" stroke="#FBBC05" stroke-width="1.5" stroke-linecap="round" stroke-linejoin="round"/>
<path d="M12 10C15.3137 10 18 8.65685 18 7C18 5.34315 15.3137 4 12 4C8.68629 4 6 5.34315 6 7C6 8.65685 8.68629 10 12 10Z" stroke="#FBBC05" stroke-width="1.5" stroke-linecap="round" stroke-linejoin="round"/>
</svg>
