<svg width="16" height="16" viewBox="0 0 16 16" fill="none" xmlns="http://www.w3.org/2000/svg">
    <path d="M4 11.3334L4 4.66669M12 4.66669L12 11.3334" stroke="white" stroke-linecap="round" stroke-linejoin="round"/>
    <path d="M12 11.3333C12 12.4379 10.2091 13.3333 8 13.3333C5.79086 13.3333 4 12.4379 4 11.3333" stroke="white" stroke-linecap="round" stroke-linejoin="round"/>
    <path d="M12 8C12 9.10457 10.2091 10 8 10C5.79086 10 4 9.10457 4 8" stroke="white" stroke-linecap="round" stroke-linejoin="round"/>
    <path d="M8 6.66669C10.2091 6.66669 12 5.77126 12 4.66669C12 3.56212 10.2091 2.66669 8 2.66669C5.79086 2.66669 4 3.56212 4 4.66669C4 5.77126 5.79086 6.66669 8 6.66669Z" stroke="white" stroke-linecap="round" stroke-linejoin="round"/>
</svg>
