<svg width="24" height="24" viewBox="0 0 24 24" fill="none" xmlns="http://www.w3.org/2000/svg">
    <path fill-rule="evenodd" clip-rule="evenodd" d="M5.12132 3.79289C4.7308 3.40237 4.09763 3.40237 3.70711 3.79289C3.31658 4.18342 3.31658 4.81658 3.70711 5.20711L5.22495 6.72495C4.61481 7.07409 4.05497 7.45137 3.54544 7.85678C2.88343 8.38351 2.31785 8.91167 1.84868 9.44128C1.37952 9.97088 1.02118 10.4616 0.773643 10.9135C0.52611 11.3654 0.402344 11.7295 0.402344 12.0058C0.402344 12.2821 0.52611 12.6463 0.773643 13.0981C1.02118 13.55 1.37808 14.0408 1.84437 14.5704C2.31065 15.1 2.87479 15.6267 3.5368 16.1506C4.19881 16.6744 4.94572 17.1551 5.77755 17.5926C6.60938 18.0301 7.51316 18.3812 8.4889 18.646C9.46464 18.9108 10.5023 19.0433 11.6018 19.0433C12.707 19.0433 13.7519 18.9108 14.7362 18.646C15.3664 18.4765 15.9648 18.2716 16.5313 18.0313L18.2929 19.7929C18.6834 20.1834 19.3166 20.1834 19.7071 19.7929C20.0976 19.4024 20.0976 18.7692 19.7071 18.3787L5.12132 3.79289ZM15.3703 16.8703L14.174 15.674C13.9187 15.8527 13.6442 16.0058 13.3503 16.1333C12.8063 16.3693 12.2235 16.4873 11.6018 16.4873C10.7671 16.4873 10.0101 16.283 9.3308 15.8743C8.65152 15.4655 8.11184 14.9215 7.71176 14.2423C7.31168 13.563 7.10876 12.8175 7.103 12.0058C7.09725 11.1711 7.29585 10.4156 7.69881 9.73918C7.76605 9.6263 7.83719 9.51731 7.91221 9.41221L6.36186 7.86186C5.81099 8.17016 5.30392 8.49803 4.84067 8.84547C4.26501 9.27722 3.7685 9.70608 3.35115 10.1321C2.9338 10.5581 2.61431 10.9365 2.39268 11.2676C2.17105 11.5986 2.06024 11.8446 2.06024 12.0058C2.06024 12.1958 2.17105 12.4649 2.39268 12.8132C2.61431 13.1615 2.9338 13.5457 3.35115 13.9659C3.7685 14.3862 4.26501 14.8093 4.84067 15.2353C5.41632 15.6613 6.05962 16.0527 6.77056 16.4096C7.4815 16.7665 8.2428 17.0544 9.05448 17.2731C9.86616 17.4919 10.7153 17.6012 11.6018 17.6012C12.4768 17.6012 13.3201 17.4919 14.1318 17.2731C14.559 17.158 14.9718 17.0237 15.3703 16.8703ZM10.1561 11.6561C10.1297 11.7674 10.1166 11.884 10.1166 12.0058C10.1166 12.4088 10.2605 12.7527 10.5483 13.0377C10.8361 13.3226 11.1873 13.4651 11.6018 13.4651C11.716 13.4651 11.8256 13.4537 11.9308 13.4308L10.1561 11.6561Z" fill="black"/>
    <path d="M19.6883 16.1506C19.6495 16.1814 19.6104 16.2121 19.5711 16.2426L18.4688 15.1404C18.9931 14.7465 19.4471 14.355 19.8308 13.9659C20.2453 13.5457 20.5648 13.1615 20.7893 12.8132C21.0138 12.4649 21.126 12.1958 21.126 12.0058C21.126 11.8446 21.0138 11.5986 20.7893 11.2676C20.5648 10.9365 20.2453 10.5581 19.8308 10.1321C19.4163 9.70608 18.9198 9.27722 18.3413 8.84547C17.7627 8.41373 17.1194 8.01221 16.4114 7.64091C15.7033 7.26961 14.9435 6.97171 14.1318 6.7472C13.3201 6.52269 12.4768 6.41044 11.6018 6.41044C11.0137 6.41044 10.4422 6.45983 9.88704 6.55861L8.659 5.33057C9.58356 5.09489 10.5645 4.97705 11.6018 4.97705C12.707 4.97705 13.7504 5.10945 14.7319 5.37425C15.7134 5.63906 16.6201 5.98733 17.4519 6.41907C18.2837 6.85082 19.0278 7.33005 19.684 7.85678C20.3403 8.38351 20.9001 8.91167 21.3635 9.44128C21.8269 9.97088 22.1809 10.4616 22.4256 10.9135C22.6702 11.3654 22.7926 11.7295 22.7926 12.0058C22.7926 12.2821 22.6702 12.6463 22.4256 13.0981C22.1809 13.55 21.8283 14.0408 21.3678 14.5704C20.9073 15.1 20.3475 15.6267 19.6883 16.1506Z" fill="black"/>
    <path d="M16.0919 12.0058C16.0919 12.2459 16.0741 12.4806 16.0384 12.71L10.9094 7.58098C11.134 7.54897 11.3648 7.53297 11.6018 7.53297C12.4307 7.53297 13.1848 7.73157 13.8641 8.12878C14.5434 8.52598 15.0845 9.06278 15.4875 9.73918C15.8904 10.4156 16.0919 11.1711 16.0919 12.0058Z" fill="black"/>
</svg>
