<svg width="24" height="24" viewBox="0 0 24 24" fill="none" xmlns="http://www.w3.org/2000/svg">
    <path d="M11.6018 19.0433C12.707 19.0433 13.7519 18.9108 14.7362 18.646C15.7206 18.3812 16.6273 18.0301 17.4562 17.5926C18.2852 17.1551 19.0292 16.6744 19.6883 16.1506C20.3475 15.6267 20.9073 15.1 21.3678 14.5704C21.8283 14.0408 22.1809 13.55 22.4256 13.0981C22.6702 12.6463 22.7926 12.2821 22.7926 12.0058C22.7926 11.7295 22.6702 11.3654 22.4256 10.9135C22.1809 10.4616 21.8269 9.97088 21.3635 9.44128C20.9001 8.91167 20.3403 8.38351 19.684 7.85678C19.0278 7.33005 18.2837 6.85082 17.4519 6.41907C16.6201 5.98733 15.7134 5.63906 14.7319 5.37425C13.7504 5.10945 12.707 4.97705 11.6018 4.97705C10.5023 4.97705 9.46608 5.10945 8.49322 5.37425C7.52035 5.63906 6.61801 5.98733 5.78618 6.41907C4.95436 6.85082 4.20744 7.33005 3.54544 7.85678C2.88343 8.38351 2.31785 8.91167 1.84868 9.44128C1.37952 9.97088 1.02118 10.4616 0.773643 10.9135C0.52611 11.3654 0.402344 11.7295 0.402344 12.0058C0.402344 12.2821 0.52611 12.6463 0.773643 13.0981C1.02118 13.55 1.37808 14.0408 1.84437 14.5704C2.31065 15.1 2.87479 15.6267 3.5368 16.1506C4.19881 16.6744 4.94572 17.1551 5.77755 17.5926C6.60937 18.0301 7.51316 18.3812 8.4889 18.646C9.46464 18.9108 10.5023 19.0433 11.6018 19.0433ZM11.6018 17.6012C10.7153 17.6012 9.86616 17.4919 9.05448 17.2731C8.2428 17.0544 7.4815 16.7665 6.77056 16.4096C6.05962 16.0527 5.41632 15.6613 4.84067 15.2353C4.26501 14.8093 3.7685 14.3862 3.35115 13.9659C2.9338 13.5457 2.61431 13.1615 2.39268 12.8132C2.17105 12.4649 2.06024 12.1958 2.06024 12.0058C2.06024 11.8446 2.17105 11.5986 2.39268 11.2676C2.61431 10.9365 2.9338 10.5581 3.35115 10.1321C3.7685 9.70608 4.26501 9.27722 4.84067 8.84547C5.41632 8.41373 6.05962 8.01221 6.77056 7.64091C7.4815 7.26961 8.2428 6.97171 9.05448 6.7472C9.86616 6.52269 10.7153 6.41044 11.6018 6.41044C12.4768 6.41044 13.3201 6.52269 14.1318 6.7472C14.9435 6.97171 15.7033 7.26961 16.4114 7.64091C17.1194 8.01221 17.7627 8.41373 18.3413 8.84547C18.9198 9.27722 19.4163 9.70608 19.8308 10.1321C20.2453 10.5581 20.5648 10.9365 20.7893 11.2676C21.0138 11.5986 21.126 11.8446 21.126 12.0058C21.126 12.1958 21.0138 12.4649 20.7893 12.8132C20.5648 13.1615 20.2453 13.5457 19.8308 13.9659C19.4163 14.3862 18.9198 14.8093 18.3413 15.2353C17.7627 15.6613 17.1194 16.0527 16.4114 16.4096C15.7033 16.7665 14.9435 17.0544 14.1318 17.2731C13.3201 17.4919 12.4768 17.6012 11.6018 17.6012ZM11.6018 16.4873C12.2235 16.4873 12.8063 16.3693 13.3503 16.1333C13.8943 15.8973 14.3721 15.5735 14.7837 15.1619C15.1953 14.7503 15.5162 14.2739 15.7465 13.7328C15.9768 13.1917 16.0919 12.616 16.0919 12.0058C16.0919 11.1711 15.8904 10.4156 15.4875 9.73918C15.0845 9.06278 14.5434 8.52598 13.8641 8.12878C13.1848 7.73157 12.4307 7.53297 11.6018 7.53297C10.7671 7.53297 10.0086 7.73157 9.32648 8.12878C8.64433 8.52598 8.10177 9.06278 7.69881 9.73918C7.29585 10.4156 7.09725 11.1711 7.103 12.0058C7.10876 12.8175 7.31168 13.563 7.71176 14.2423C8.11184 14.9215 8.65152 15.4655 9.3308 15.8743C10.0101 16.283 10.7671 16.4873 11.6018 16.4873ZM11.6018 13.4651C11.1873 13.4651 10.8361 13.3227 10.5483 13.0377C10.2605 12.7527 10.1166 12.4088 10.1166 12.0058C10.1166 11.6029 10.2605 11.2575 10.5483 10.9696C10.8361 10.6818 11.1873 10.5379 11.6018 10.5379C12.0047 10.5379 12.3516 10.6818 12.6423 10.9696C12.933 11.2575 13.0783 11.6029 13.0783 12.0058C13.0783 12.4088 12.933 12.7527 12.6423 13.0377C12.3516 13.3227 12.0047 13.4651 11.6018 13.4651Z" fill="black"/>
</svg>
