<svg width="37" height="37" viewBox="0 0 37 37" fill="none" xmlns="http://www.w3.org/2000/svg">
    <path d="M29.4688 33.6875H12.875C12.7258 33.6875 12.5827 33.6282 12.4773 33.5227C12.3718 33.4173 12.3125 33.2742 12.3125 33.125C12.3125 32.9758 12.3718 32.8327 12.4773 32.7273C12.5827 32.6218 12.7258 32.5625 12.875 32.5625H29.4688C30.2889 32.5615 31.0752 32.2352 31.6552 31.6552C32.2352 31.0752 32.5615 30.2889 32.5625 29.4688V4.4375H14.5625V5.28688C14.5625 5.43606 14.5032 5.57913 14.3977 5.68462C14.2923 5.79011 14.1492 5.84938 14 5.84938C13.8508 5.84938 13.7077 5.79011 13.6023 5.68462C13.4968 5.57913 13.4375 5.43606 13.4375 5.28688V3.875C13.4375 3.72582 13.4968 3.58274 13.6023 3.47725C13.7077 3.37176 13.8508 3.3125 14 3.3125H33.125C33.2742 3.3125 33.4173 3.37176 33.5227 3.47725C33.6282 3.58274 33.6875 3.72582 33.6875 3.875V29.4688C33.6863 30.5873 33.2415 31.6596 32.4505 32.4505C31.6596 33.2415 30.5873 33.6863 29.4688 33.6875Z" fill="#FF6433"/>
    <path d="M14 24.6875C13.8508 24.6875 13.7077 24.6282 13.6023 24.5227C13.4968 24.4173 13.4375 24.2742 13.4375 24.125V14.5625C13.4375 14.4133 13.4968 14.2702 13.6023 14.1648C13.7077 14.0593 13.8508 14 14 14C14.1492 14 14.2923 14.0593 14.3977 14.1648C14.5032 14.2702 14.5625 14.4133 14.5625 14.5625V24.125C14.5625 24.2742 14.5032 24.4173 14.3977 24.5227C14.2923 24.6282 14.1492 24.6875 14 24.6875Z" fill="#FF6433"/>
    <path d="M10.0625 16.8125C8.72748 16.8125 7.42244 16.4166 6.3124 15.6749C5.20237 14.9332 4.33721 13.879 3.82632 12.6456C3.31542 11.4122 3.18175 10.055 3.4422 8.74564C3.70265 7.43627 4.34553 6.23354 5.28953 5.28953C6.23354 4.34553 7.43627 3.70265 8.74564 3.4422C10.055 3.18175 11.4122 3.31542 12.6456 3.82632C13.879 4.33721 14.9332 5.20237 15.6749 6.3124C16.4166 7.42244 16.8125 8.72748 16.8125 10.0625C16.8106 11.8521 16.0988 13.5679 14.8333 14.8333C13.5679 16.0988 11.8521 16.8106 10.0625 16.8125ZM10.0625 4.4375C8.94998 4.4375 7.86245 4.7674 6.93742 5.38549C6.01239 6.00357 5.29142 6.88207 4.86568 7.90991C4.43994 8.93774 4.32854 10.0687 4.54559 11.1599C4.76263 12.251 5.29836 13.2533 6.08503 14.04C6.8717 14.8266 7.87398 15.3624 8.96512 15.5794C10.0563 15.7965 11.1873 15.6851 12.2151 15.2593C13.2429 14.8336 14.1214 14.1126 14.7395 13.1876C15.3576 12.2626 15.6875 11.175 15.6875 10.0625C15.6859 8.57116 15.0927 7.14137 14.0382 6.08684C12.9836 5.0323 11.5538 4.43914 10.0625 4.4375ZM29.4688 33.6875C28.9145 33.6885 28.3654 33.58 27.8532 33.3683C27.3409 33.1567 26.8754 32.8459 26.4835 32.454C26.0916 32.0621 25.7808 31.5966 25.5692 31.0843C25.3575 30.5721 25.249 30.023 25.25 29.4688V24.125C25.25 23.9758 25.3093 23.8327 25.4148 23.7273C25.5202 23.6218 25.6633 23.5625 25.8125 23.5625C25.9617 23.5625 26.1048 23.6218 26.2103 23.7273C26.3157 23.8327 26.375 23.9758 26.375 24.125V29.4688C26.375 30.2893 26.701 31.0762 27.2811 31.6564C27.8613 32.2366 28.6482 32.5625 29.4688 32.5625C30.2893 32.5625 31.0762 32.2366 31.6564 31.6564C32.2366 31.0762 32.5625 30.2893 32.5625 29.4688V24.125C32.5625 23.9758 32.6218 23.8327 32.7273 23.7273C32.8327 23.6218 32.9758 23.5625 33.125 23.5625C33.2742 23.5625 33.4173 23.6218 33.5228 23.7273C33.6282 23.8327 33.6875 23.9758 33.6875 24.125V29.4688C33.6863 30.5873 33.2415 31.6596 32.4505 32.4505C31.6596 33.2415 30.5873 33.6863 29.4688 33.6875Z" fill="#FF6433"/>
    <path d="M25.8134 33.6875H12.5947C11.4761 33.6863 10.4038 33.2414 9.61286 32.4505C8.82195 31.6596 8.37709 30.5873 8.3759 29.4687V24.125C8.3759 23.9758 8.43516 23.8327 8.54065 23.7272C8.64614 23.6218 8.78922 23.5625 8.9384 23.5625H25.8134C25.9626 23.5625 26.1057 23.6218 26.2111 23.7272C26.3166 23.8327 26.3759 23.9758 26.3759 24.125V29.75C26.3759 29.8992 26.3166 30.0423 26.2111 30.1477C26.1057 30.2532 25.9626 30.3125 25.8134 30.3125C25.6642 30.3125 25.5211 30.2532 25.4157 30.1477C25.3102 30.0423 25.2509 29.8992 25.2509 29.75V24.6875H9.5009V29.4687C9.50194 30.2889 9.82822 31.0752 10.4082 31.6552C10.9882 32.2352 11.7745 32.5615 12.5947 32.5625H25.8134C25.9626 32.5625 26.1057 32.6218 26.2111 32.7272C26.3166 32.8327 26.3759 32.9758 26.3759 33.125C26.3759 33.2742 26.3166 33.4173 26.2111 33.5227C26.1057 33.6282 25.9626 33.6875 25.8134 33.6875ZM28.0634 8.9375H19.0634C18.9142 8.9375 18.7711 8.87823 18.6657 8.77274C18.5602 8.66726 18.5009 8.52418 18.5009 8.375C18.5009 8.22581 18.5602 8.08274 18.6657 7.97725C18.7711 7.87176 18.9142 7.8125 19.0634 7.8125H28.0634C28.2126 7.8125 28.3557 7.87176 28.4611 7.97725C28.5666 8.08274 28.6259 8.22581 28.6259 8.375C28.6259 8.52418 28.5666 8.66726 28.4611 8.77274C28.3557 8.87823 28.2126 8.9375 28.0634 8.9375ZM28.0634 12.875H19.0634C18.9142 12.875 18.7711 12.8157 18.6657 12.7102C18.5602 12.6048 18.5009 12.4617 18.5009 12.3125C18.5009 12.1633 18.5602 12.0202 18.6657 11.9147C18.7711 11.8093 18.9142 11.75 19.0634 11.75H28.0634C28.2126 11.75 28.3557 11.8093 28.4611 11.9147C28.5666 12.0202 28.6259 12.1633 28.6259 12.3125C28.6259 12.4617 28.5666 12.6048 28.4611 12.7102C28.3557 12.8157 28.2126 12.875 28.0634 12.875ZM28.0634 16.8125H19.0634C18.9142 16.8125 18.7711 16.7532 18.6657 16.6477C18.5602 16.5423 18.5009 16.3992 18.5009 16.25C18.5009 16.1008 18.5602 15.9577 18.6657 15.8522C18.7711 15.7468 18.9142 15.6875 19.0634 15.6875H28.0634C28.2126 15.6875 28.3557 15.7468 28.4611 15.8522C28.5666 15.9577 28.6259 16.1008 28.6259 16.25C28.6259 16.3992 28.5666 16.5423 28.4611 16.6477C28.3557 16.7532 28.2126 16.8125 28.0634 16.8125ZM28.0634 20.75H19.0634C18.9142 20.75 18.7711 20.6907 18.6657 20.5852C18.5602 20.4798 18.5009 20.3367 18.5009 20.1875C18.5009 20.0383 18.5602 19.8952 18.6657 19.7897C18.7711 19.6843 18.9142 19.625 19.0634 19.625H28.0634C28.2126 19.625 28.3557 19.6843 28.4611 19.7897C28.5666 19.8952 28.6259 20.0383 28.6259 20.1875C28.6259 20.3367 28.5666 20.4798 28.4611 20.5852C28.3557 20.6907 28.2126 20.75 28.0634 20.75ZM9.5009 12.875C9.35173 12.875 9.20868 12.8157 9.10321 12.7102L7.41571 11.0227C7.31325 10.9166 7.25655 10.7745 7.25783 10.627C7.25912 10.4795 7.31827 10.3385 7.42256 10.2342C7.52686 10.1299 7.66794 10.0707 7.81542 10.0694C7.96291 10.0681 8.105 10.1248 8.21109 10.2273L9.47334 11.4896L13.0171 7.44237C13.1155 7.33093 13.254 7.26297 13.4024 7.25337C13.5508 7.24377 13.6969 7.2933 13.8089 7.39113C13.9208 7.48896 13.9895 7.62714 13.9999 7.77545C14.0102 7.92377 13.9615 8.07016 13.8642 8.18262L9.92671 12.6826C9.87595 12.7406 9.81381 12.7876 9.74414 12.8206C9.67447 12.8536 9.59876 12.8719 9.52171 12.8744L9.5009 12.875Z" fill="#FF6433"/>
</svg>
