<svg width="37" height="37" viewBox="0 0 37 37" fill="none" xmlns="http://www.w3.org/2000/svg">
    <path d="M13.8157 2.58358C13.7099 2.58548 13.6067 2.61717 13.518 2.675C13.518 2.675 13.0546 2.97264 12.5826 3.43186C12.1149 3.89108 11.5685 4.53102 11.5366 5.37717C11.5153 5.8938 11.7492 6.24459 11.9724 6.63153C12.1957 7.02059 12.4487 7.40328 12.5996 7.67328C12.6421 7.75195 12.6506 7.81147 12.6209 7.93266C12.5734 8.08941 12.4993 8.23684 12.4019 8.36849C12.1872 8.67039 11.9129 8.90425 11.9129 8.90425C11.8483 8.94832 11.7936 9.00535 11.7522 9.07172C11.7109 9.13809 11.6838 9.21234 11.6727 9.28975C11.6616 9.36716 11.6667 9.44603 11.6878 9.52134C11.7088 9.59666 11.7453 9.66676 11.795 9.7272C11.8446 9.78764 11.9062 9.83708 11.976 9.87239C12.0458 9.90769 12.1222 9.92809 12.2002 9.93227C12.2783 9.93645 12.3564 9.92434 12.4296 9.89669C12.5027 9.86904 12.5693 9.82646 12.6251 9.77167C12.6251 9.77167 12.9993 9.46552 13.3182 9.01481C13.4777 8.78945 13.6329 8.52582 13.7136 8.20054C13.8053 7.83713 13.7575 7.45256 13.5797 7.12264C13.3905 6.7846 13.1417 6.41042 12.9483 6.07239C12.7548 5.73435 12.6613 5.38993 12.6613 5.41969C12.674 5.09229 12.9908 4.60755 13.3692 4.2355C13.7498 3.86557 14.1261 3.6232 14.1261 3.6232C14.23 3.55755 14.3096 3.45972 14.3527 3.34463C14.3959 3.22953 14.4002 3.10349 14.365 2.98571C14.3299 2.86793 14.2572 2.76489 14.158 2.69228C14.0588 2.61968 13.9386 2.58151 13.8157 2.58358ZM19.4433 2.58358C19.336 2.58468 19.2313 2.6164 19.1414 2.675C19.1414 2.675 18.6758 2.97264 18.2059 3.43186C17.734 3.89108 17.1918 4.53102 17.1599 5.37717C17.1387 5.8938 17.3725 6.24459 17.5958 6.63153C17.8169 7.02059 18.0741 7.40328 18.2272 7.67328C18.2697 7.75195 18.2718 7.81147 18.2421 7.93266C18.1963 8.0893 18.1237 8.23678 18.0274 8.36849C17.8147 8.67039 17.532 8.90425 17.532 8.90425C17.4687 8.94896 17.4153 9.00624 17.3751 9.07252C17.3349 9.13881 17.3089 9.21266 17.2986 9.28947C17.2883 9.36629 17.2939 9.4444 17.3151 9.51893C17.3364 9.59346 17.3728 9.66281 17.4221 9.72264C17.4713 9.78246 17.5324 9.83148 17.6015 9.86662C17.6706 9.90177 17.7461 9.92228 17.8235 9.92688C17.9009 9.93148 17.9783 9.92008 18.0511 9.89337C18.1239 9.86666 18.1903 9.82523 18.2463 9.77167C18.2463 9.77167 18.6248 9.46552 18.9458 9.01481C19.1052 8.78945 19.2562 8.52582 19.3349 8.20054C19.4289 7.83795 19.3834 7.45326 19.2073 7.12264C19.016 6.7846 18.7651 6.41042 18.5695 6.07239C18.3781 5.73222 18.2846 5.38993 18.2846 5.41969C18.2974 5.09229 18.6141 4.60755 18.9947 4.2355C19.3731 3.86557 19.7494 3.6232 19.7494 3.6232C19.853 3.55774 19.9324 3.46029 19.9756 3.34563C20.0188 3.23097 20.0235 3.10534 19.9889 2.9878C19.9543 2.87025 19.8823 2.7672 19.7838 2.69426C19.6854 2.62131 19.5658 2.58246 19.4433 2.58358ZM25.0709 2.58358C24.9629 2.58428 24.8573 2.61601 24.7669 2.675C24.7669 2.675 24.3013 2.97264 23.8314 3.43186C23.3615 3.89108 22.8173 4.53102 22.7854 5.37717C22.7641 5.8938 22.998 6.24459 23.2212 6.63153C23.4445 7.02059 23.6975 7.40328 23.8484 7.67328C23.8931 7.75195 23.8994 7.81147 23.8697 7.93266C23.8214 8.08951 23.7466 8.23693 23.6486 8.36849C23.436 8.67039 23.1596 8.90425 23.1596 8.90425C23.0963 8.94896 23.0429 9.00624 23.0027 9.07252C22.9625 9.13881 22.9365 9.21266 22.9262 9.28947C22.9158 9.36629 22.9215 9.4444 22.9427 9.51893C22.964 9.59346 23.0004 9.66281 23.0496 9.72264C23.0989 9.78246 23.16 9.83148 23.2291 9.86662C23.2981 9.90177 23.3737 9.92228 23.4511 9.92688C23.5285 9.93148 23.6059 9.92008 23.6787 9.89337C23.7514 9.86666 23.8179 9.82523 23.8739 9.77167C23.8739 9.77167 24.2481 9.46552 24.567 9.01481C24.7265 8.78945 24.8838 8.52582 24.9624 8.20054C25.0563 7.83793 25.0108 7.45332 24.8349 7.12264C24.6435 6.7846 24.3927 6.41042 24.1971 6.07239C24.0036 5.73222 23.9122 5.38993 23.9101 5.41969C23.9228 5.09229 24.2375 4.60755 24.618 4.2355C24.9965 3.86557 25.3728 3.6232 25.3728 3.6232C25.476 3.55793 25.5553 3.46086 25.5986 3.34662C25.6419 3.23239 25.6469 3.10718 25.6128 2.98986C25.5787 2.87254 25.5074 2.76948 25.4097 2.6962C25.312 2.62291 25.193 2.58339 25.0709 2.58358ZM18.4547 10.8368C17.8081 10.8385 17.1885 11.0962 16.7315 11.5537C16.2745 12.0111 16.0172 12.6309 16.0161 13.2775C16.0161 13.6963 16.1246 14.096 16.3202 14.4489C12.8493 14.9631 9.67859 16.707 7.38563 19.3629C5.09267 22.0187 3.83 25.4099 3.82762 28.9187C3.82762 29.5352 3.88077 30.1518 3.95943 30.7641C3.60348 30.8508 3.28672 31.054 3.05946 31.3413C2.83219 31.6287 2.70746 31.9837 2.70508 32.3501V32.4542C2.70508 33.3493 3.44068 34.0913 4.33787 34.0913H32.5694C33.4644 34.0913 34.2064 33.3493 34.2064 32.4542V32.3479C34.203 31.98 34.0763 31.6238 33.8466 31.3363C33.6169 31.0488 33.2974 30.8465 32.9393 30.7619C33.0201 30.1518 33.0754 29.5373 33.0796 28.9208C33.0796 28.9194 33.0796 28.918 33.0796 28.9165C33.0772 25.4078 31.8146 22.0166 29.5216 19.3607C27.2286 16.7049 24.058 14.961 20.5871 14.4468C20.7827 14.0939 20.8911 13.6942 20.8911 13.2775C20.8894 12.6316 20.6323 12.0127 20.1758 11.5558C19.7193 11.0989 19.1005 10.8391 18.4547 10.8368ZM18.4547 11.9636C19.186 11.9636 19.7664 12.544 19.7664 13.2754C19.7624 13.4793 19.7102 13.6794 19.6141 13.8593C19.5181 14.0392 19.3808 14.1939 19.2137 14.3107C18.7073 14.2851 18.1999 14.2851 17.6936 14.3107C17.5261 14.1937 17.3887 14.0387 17.2926 13.8583C17.1966 13.678 17.1445 13.4775 17.1408 13.2732C17.1408 12.5419 17.7233 11.9615 18.4547 11.9615V11.9636ZM18.4547 15.4163C18.7566 15.4163 19.0585 15.4312 19.3667 15.4503C19.3738 15.4504 19.3809 15.4504 19.388 15.4503C22.7986 15.6847 25.993 17.2052 28.3255 19.7046C30.6579 22.204 31.9544 25.4958 31.9528 28.9144C31.9388 29.5162 31.8848 30.1163 31.7912 30.7109H5.10749C5.01654 30.1169 4.96541 29.5174 4.95441 28.9165C4.9523 25.4975 6.24853 22.2052 8.58103 19.7054C10.9135 17.2056 14.1082 15.6847 17.5192 15.4503C17.5263 15.4504 17.5334 15.4504 17.5405 15.4503C17.8447 15.4284 18.1496 15.4171 18.4547 15.4163ZM18.4547 16.6494C18.3053 16.6494 18.162 16.7087 18.0563 16.8144C17.9506 16.92 17.8913 17.0633 17.8913 17.2128C17.8913 17.3622 17.9506 17.5055 18.0563 17.6111C18.162 17.7168 18.3053 17.7762 18.4547 17.7762C19.792 17.7762 21.0612 18.0525 22.2114 18.55C24.6478 19.6067 27.2033 21.7327 28.0473 24.1479C28.0689 24.2209 28.1052 24.2889 28.1538 24.3476C28.2025 24.4062 28.2625 24.4544 28.3303 24.4892C28.3982 24.524 28.4723 24.5447 28.5484 24.55C28.6244 24.5553 28.7007 24.5451 28.7727 24.5201C28.8447 24.495 28.9109 24.4556 28.9672 24.4043C29.0235 24.3529 29.0688 24.2906 29.1004 24.2213C29.1319 24.1519 29.1491 24.0768 29.1508 24.0006C29.1525 23.9244 29.1387 23.8487 29.1103 23.7779C28.1047 20.9078 25.326 18.6755 22.66 17.5189C21.3697 16.9654 19.9819 16.6749 18.578 16.6642C18.5375 16.6555 18.4961 16.6491 18.4547 16.6494ZM4.33787 31.8377H4.57173C4.57882 31.8378 4.5859 31.8378 4.59299 31.8377H32.3015C32.3086 31.8378 32.3157 31.8378 32.3227 31.8377H32.5694C32.8606 31.8377 33.0796 32.0567 33.0796 32.3479V32.4521C33.0796 32.7434 32.8606 32.9624 32.5694 32.9624H4.33574C4.26853 32.9638 4.20172 32.9516 4.13938 32.9264C4.07704 32.9013 4.02048 32.8637 3.97315 32.8159C3.92581 32.7682 3.88868 32.7113 3.86403 32.6488C3.83937 32.5862 3.82771 32.5193 3.82975 32.4521V32.3458C3.82975 32.0567 4.04447 31.8377 4.33787 31.8377Z" fill="#FF6433"/>
</svg>
