<svg width="37" height="37" viewBox="0 0 37 37" fill="none" xmlns="http://www.w3.org/2000/svg">
    <g clip-path="url(#clip0_2302_28801)">
        <path d="M18.3554 4.3519H6.76337C6.00737 4.3519 5.43137 4.9639 5.43137 5.6839C5.43137 6.4039 6.04337 7.0159 6.76337 7.0159H18.3554C19.1114 7.0159 19.6874 6.4039 19.6874 5.6839C19.6874 4.9639 19.1114 4.3519 18.3554 4.3519ZM18.3554 6.2959H6.76337C6.43937 6.2959 6.15137 6.0079 6.15137 5.6839C6.15137 5.3599 6.43937 5.0719 6.76337 5.0719H18.3554C18.6794 5.0719 18.9674 5.3599 18.9674 5.6839C18.9674 6.0079 18.6794 6.2959 18.3554 6.2959ZM30.1274 4.2439C29.3354 4.2439 28.6874 4.8919 28.6874 5.6839C28.6874 6.4759 29.3354 7.1239 30.1274 7.1239C30.9194 7.1239 31.5674 6.4759 31.5674 5.6839C31.5674 4.8919 30.9194 4.2439 30.1274 4.2439ZM30.1274 6.4039C29.7314 6.4039 29.4074 6.0799 29.4074 5.6839C29.4074 5.2879 29.7314 4.9639 30.1274 4.9639C30.5234 4.9639 30.8474 5.2879 30.8474 5.6839C30.8474 6.0799 30.5234 6.4039 30.1274 6.4039ZM26.6714 4.2439C25.8794 4.2439 25.2314 4.8919 25.2314 5.6839C25.2314 6.4759 25.8794 7.1239 26.6714 7.1239C27.4634 7.1239 28.1114 6.4759 28.1114 5.6839C28.1114 4.8919 27.4634 4.2439 26.6714 4.2439ZM26.6714 6.4039C26.2754 6.4039 25.9514 6.0799 25.9514 5.6839C25.9514 5.2879 26.2754 4.9639 26.6714 4.9639C27.0674 4.9639 27.3914 5.2879 27.3914 5.6839C27.3914 6.0799 27.0674 6.4039 26.6714 6.4039ZM23.2154 4.2439C22.4234 4.2439 21.7754 4.8919 21.7754 5.6839C21.7754 6.4759 22.4234 7.1239 23.2154 7.1239C24.0074 7.1239 24.6554 6.4759 24.6554 5.6839C24.6554 4.8919 24.0074 4.2439 23.2154 4.2439ZM23.2154 6.4039C22.8194 6.4039 22.4954 6.0799 22.4954 5.6839C22.4954 5.2879 22.8194 4.9639 23.2154 4.9639C23.6114 4.9639 23.9354 5.2879 23.9354 5.6839C23.9354 6.0799 23.6114 6.4039 23.2154 6.4039ZM7.30337 15.3319H29.7314C30.2714 15.3319 30.7394 14.8639 30.7394 14.3239V11.2999C30.7394 10.7599 30.2714 10.2919 29.7314 10.2919H7.30337C6.76337 10.2919 6.29537 10.7599 6.29537 11.2999V14.3599C6.25938 14.8999 6.72737 15.3319 7.30337 15.3319ZM6.97937 11.2999C6.97937 11.1559 7.12337 11.0119 7.26737 11.0119H29.6954C29.8394 11.0119 29.9834 11.1559 29.9834 11.2999V14.3599C29.9834 14.5039 29.8394 14.6479 29.6954 14.6479H7.30337C7.15937 14.6479 7.01537 14.5039 7.01537 14.3599V11.2999H6.97937ZM7.26737 24.0799H12.1274C12.7394 24.0799 13.2434 23.5759 13.2434 22.9639V18.2119C13.2434 17.5999 12.7394 17.0959 12.1274 17.0959H7.26737C6.65537 17.0959 6.15137 17.5999 6.15137 18.2119V22.9639C6.11537 23.5759 6.61937 24.0799 7.26737 24.0799ZM6.83537 18.2119C6.83537 17.9959 7.01538 17.8159 7.23138 17.8159H12.0914C12.3074 17.8159 12.4874 17.9959 12.4874 18.2119V22.9639C12.4874 23.1799 12.3074 23.3599 12.0914 23.3599H7.26737C7.05137 23.3599 6.87138 23.1799 6.87138 22.9639V18.2119H6.83537ZM16.0514 24.0799H20.9114C21.5234 24.0799 22.0274 23.5759 22.0274 22.9639V18.2119C22.0274 17.5999 21.5234 17.0959 20.9114 17.0959H16.0514C15.4394 17.0959 14.9354 17.5999 14.9354 18.2119V22.9639C14.9354 23.5759 15.4394 24.0799 16.0514 24.0799ZM15.6554 18.2119C15.6554 17.9959 15.8354 17.8159 16.0514 17.8159H20.9114C21.1274 17.8159 21.3074 17.9959 21.3074 18.2119V22.9639C21.3074 23.1799 21.1274 23.3599 20.9114 23.3599H16.0514C15.8354 23.3599 15.6554 23.1799 15.6554 22.9639V18.2119ZM29.7314 17.0959H24.8354C24.2234 17.0959 23.7194 17.5999 23.7194 18.2119V22.9639C23.7194 23.5759 24.2234 24.0799 24.8354 24.0799H29.6954C30.3074 24.0799 30.8114 23.5759 30.8114 22.9639V18.2119C30.8474 17.5999 30.3434 17.0959 29.7314 17.0959ZM30.1274 22.9279C30.1274 23.1439 29.9474 23.3239 29.7314 23.3239H24.8354C24.6194 23.3239 24.4394 23.1439 24.4394 22.9279V18.2119C24.4394 17.9959 24.6194 17.8159 24.8354 17.8159H29.6954C29.9114 17.8159 30.0914 17.9959 30.0914 18.2119V22.9279H30.1274ZM6.07937 27.8599L7.91537 29.1919L7.23138 31.3159C7.15938 31.4959 7.23137 31.6759 7.37537 31.7839C7.51937 31.8919 7.73537 31.8919 7.87937 31.7839L9.71537 30.4519L11.5154 31.7839C11.6594 31.8919 11.8754 31.8919 12.0194 31.7839C12.1634 31.6759 12.2354 31.4959 12.1994 31.3159L11.5154 29.1559L13.3514 27.8239C13.4954 27.7159 13.5674 27.5359 13.5314 27.3559C13.4594 27.1759 13.3154 27.0679 13.1354 27.0679H10.8674L10.1474 24.9079C10.0754 24.7279 9.93137 24.6199 9.75138 24.6199C9.57137 24.6199 9.42737 24.7279 9.35537 24.9079L8.67137 27.0679H6.40337C6.22337 27.0679 6.04338 27.1759 6.00737 27.3559C5.86337 27.5719 5.93537 27.7519 6.07937 27.8599ZM8.81537 27.8239C8.99537 27.8239 9.17537 27.6799 9.21138 27.5359L9.67937 26.0599L10.1474 27.5359C10.1834 27.7159 10.3634 27.8599 10.5434 27.8599H12.0914L10.7954 28.7959C10.6514 28.9039 10.6154 29.0839 10.6514 29.2639L11.1194 30.7399L9.85938 29.8399C9.78737 29.7679 9.67937 29.7319 9.57137 29.7319C9.49938 29.7319 9.39137 29.7679 9.31938 29.8039L8.05937 30.7399L8.52737 29.2279C8.56337 29.0479 8.52737 28.9039 8.38337 28.7599L7.12337 27.8239H8.81537ZM21.8474 27.2119H19.5794L18.8954 25.0519C18.8234 24.8719 18.6794 24.7639 18.4994 24.7639C18.3194 24.7639 18.1754 24.8719 18.1034 25.0519L17.4194 27.2119H15.1514C14.9714 27.2119 14.8274 27.3199 14.7554 27.4999C14.6834 27.6799 14.7554 27.8599 14.8994 27.9679L16.6994 29.2999L16.0154 31.4599C15.9434 31.6399 16.0154 31.8199 16.1594 31.9279C16.3034 32.0359 16.5194 32.0359 16.6634 31.9279L18.4994 30.5959L20.3354 31.9279C20.4074 31.9639 20.4794 31.9999 20.5874 31.9999C20.6594 31.9999 20.7674 31.9639 20.8394 31.9279C20.9834 31.8199 21.0554 31.6399 20.9834 31.4599L20.2994 29.2999L22.1354 27.9679C22.2794 27.8599 22.3514 27.6799 22.2794 27.4999C22.2074 27.3199 22.0274 27.2119 21.8474 27.2119ZM19.6874 28.8679C19.5434 28.9759 19.4714 29.1559 19.5434 29.3359L20.0114 30.8119L18.7154 29.8759C18.5714 29.7679 18.3914 29.7679 18.2114 29.8759L16.9514 30.8119L17.4554 29.2999C17.4914 29.1199 17.4554 28.9759 17.2754 28.8319L16.0154 27.8959H17.5634C17.7434 27.8959 17.9234 27.7519 17.9594 27.6079L18.4274 26.1319L18.8954 27.6079C18.9314 27.7879 19.1114 27.9319 19.2914 27.9319H20.8394L19.6874 28.8679ZM28.3994 27.2119L27.7154 25.0879C27.6794 24.9079 27.4994 24.7999 27.3194 24.7999C27.1394 24.7999 26.9594 24.9079 26.9234 25.0879L26.2394 27.2479H23.9714C23.7914 27.2479 23.6114 27.3559 23.5754 27.5359C23.5034 27.7159 23.5754 27.8959 23.7194 28.0039L25.5554 29.3359L24.8714 31.4959C24.7994 31.6759 24.8714 31.8559 25.0154 31.9639C25.1594 32.0719 25.3754 32.0719 25.5194 31.9639L27.3554 30.6319L29.1914 31.9639C29.2634 31.9999 29.3354 32.0359 29.4434 32.0359C29.7314 32.0359 29.9474 31.7479 29.8394 31.4959L29.1554 29.3359L30.9914 28.0039C31.1354 27.8959 31.2074 27.7159 31.1354 27.5359C31.0634 27.3559 30.9194 27.2479 30.7394 27.2479H28.3994V27.2119ZM28.4714 28.8679C28.3274 29.0119 28.2554 29.1919 28.3274 29.3359L28.7954 30.8119L27.5354 29.8759C27.5354 29.8759 27.4994 29.8759 27.4994 29.8399C27.3554 29.7679 27.2114 29.7679 27.0674 29.8399C27.0674 29.8399 27.0314 29.8399 27.0314 29.8759L25.7714 30.8119L26.2394 29.3359C26.3114 29.1559 26.2394 28.9759 26.0954 28.8319L24.8354 27.8959H26.3834C26.5634 27.8959 26.7074 27.7879 26.7794 27.6079L27.2474 26.1319L27.7514 27.6439C27.8234 27.8239 27.9674 27.9319 28.1474 27.9319H29.6954L28.4714 28.8679ZM2.19137 33.6199H1.21937C1.00337 33.6199 0.859375 33.7639 0.859375 33.9799C0.859375 34.1959 1.00337 34.3399 1.21937 34.3399H2.19137C2.40737 34.3399 2.55137 34.1959 2.55137 33.9799C2.55137 33.7639 2.37137 33.6199 2.19137 33.6199Z" fill="#FF6433"/>
        <path d="M35.7798 33.6199H33.4758C33.6198 33.4039 33.6918 33.1159 33.6918 32.8639V4.42391C33.6918 3.45191 32.8998 2.65991 31.9638 2.65991H5.03584C4.06384 2.65991 3.30784 3.45191 3.30784 4.38791V32.8279C3.30784 33.1159 3.37984 33.3679 3.52384 33.5839H3.19984C2.98384 33.5839 2.83984 33.7279 2.83984 33.9439C2.83984 34.1599 2.98384 34.3039 3.19984 34.3039H35.7798C35.9958 34.3039 36.1398 34.1599 36.1398 33.9439C36.1398 33.7279 35.9958 33.6199 35.7798 33.6199ZM4.02784 8.70791H32.9718V32.8639C32.9718 33.2959 32.6478 33.6199 32.2158 33.6199H4.78384C4.35184 33.6199 4.02784 33.2959 4.02784 32.8639V8.70791ZM4.02784 4.38791C4.02784 3.84791 4.45984 3.37991 5.03584 3.37991H31.9638C32.5398 3.37991 32.9718 3.84791 32.9718 4.38791V7.95191H4.02784V4.38791Z" fill="#FF6433"/>
    </g>
    <defs>
        <clipPath id="clip0_2302_28801">
            <rect width="36" height="36" fill="white" transform="translate(0.5 0.5)"/>
        </clipPath>
    </defs>
</svg>
