<svg width="37" height="36" viewBox="0 0 37 36" fill="none" xmlns="http://www.w3.org/2000/svg">
    <path d="M35.6755 19.0255C35.0781 18.1716 33.8082 17.8553 32.783 18.3022L26.0806 21.0678C25.7824 20.2293 24.9711 19.6356 24.0193 19.6356H18.0503C17.1593 19.6356 15.699 19.3754 14.8587 19.0681L14.8251 19.0545C14.8251 19.0545 14.8179 19.0518 14.8143 19.05C13.7501 18.6584 12.1139 18.4246 10.4388 18.4246H7.87078V17.7619C7.87078 16.9887 7.2417 16.3596 6.46758 16.3596H5.10064V15.784C5.10064 15.5339 4.8976 15.3308 4.64741 15.3308H0.453229C0.203047 15.3308 0 15.5339 0 15.784V31.2147C0 31.4649 0.203047 31.6679 0.453229 31.6679H4.64741C4.8976 31.6679 5.10064 31.4649 5.10064 31.2147V30.4442H6.46758C7.24079 30.4442 7.87078 29.8151 7.87078 29.041V28.1953L18.9377 30.7633C19.1743 30.8149 19.4363 30.8394 19.71 30.8394C20.5875 30.8394 21.5855 30.5874 22.24 30.1659L35.0364 21.7667C35.5205 21.4548 35.8595 20.9663 35.9656 20.426C36.0635 19.9284 35.961 19.4316 35.6764 19.0246L35.6755 19.0255ZM4.19418 30.7614H0.906459V16.2373H4.19418V30.7614ZM6.96341 18.8751C6.96341 18.8751 6.96341 18.8769 6.96341 18.8778C6.96341 18.8787 6.96341 18.8796 6.96341 18.8805V27.6115C6.96341 27.6115 6.96341 27.6169 6.96341 27.6197V29.0419C6.96341 29.3156 6.74043 29.5386 6.46668 29.5386H5.09974V17.2661H6.46668C6.74043 17.2661 6.96341 17.4891 6.96341 17.7619V18.8751ZM35.0745 20.252C35.0156 20.552 34.8225 20.8267 34.5406 21.008L21.7441 29.4072C21.0888 29.8287 19.8913 30.0444 19.1353 29.8804L7.86987 27.2661V19.3319H10.4379C12.0097 19.3319 13.5253 19.544 14.4952 19.8994L14.5287 19.913C14.5287 19.913 14.536 19.9157 14.5396 19.9175C15.4778 20.2628 17.0523 20.5429 18.0494 20.5429H24.0184C24.7019 20.5429 25.2612 21.0596 25.2938 21.7232C25.2947 21.7404 25.2956 21.7585 25.2956 21.7766C25.2956 21.8546 25.2875 21.9325 25.2721 22.0114C25.1551 22.5897 24.6285 23.0103 24.0193 23.0103H18.0612C17.8781 23.0031 16.2673 22.9741 14.9285 24.1307C14.739 24.2948 14.7182 24.5803 14.8822 24.7698C14.972 24.8731 15.098 24.9266 15.2249 24.9266C15.33 24.9266 15.4352 24.8903 15.5213 24.816C16.6281 23.8597 18.0131 23.915 18.0258 23.9159C18.034 23.9159 18.0422 23.9159 18.0512 23.9159H24.0202C25.059 23.9159 25.9601 23.1898 26.1622 22.1882C26.174 22.1265 26.1831 22.0649 26.1903 22.0042L33.1338 19.1388C33.1338 19.1388 33.1401 19.1361 33.1428 19.1352C33.7665 18.8615 34.5859 19.05 34.9331 19.5458C35.0745 19.748 35.1253 19.9991 35.0754 20.2529L35.0745 20.252Z" fill="#FF6433"/>
    <path d="M18.0006 16.9143C21.5611 16.9143 24.4573 14.0173 24.4573 10.4576C24.4573 6.89794 21.5602 4 18.0006 4C14.4409 4 11.543 6.89613 11.543 10.4567C11.543 14.0173 14.4391 16.9134 17.9997 16.9134L18.0006 16.9143ZM18.0006 4.90646C21.0617 4.90646 23.5508 7.3965 23.5508 10.4567C23.5508 13.5169 21.0608 16.0069 18.0006 16.0069C14.9404 16.0069 12.4503 13.5169 12.4503 10.4567C12.4503 7.3965 14.9404 4.90646 18.0006 4.90646Z" fill="#FF6433"/>
    <path d="M18.6544 9.54448C18.8932 9.54448 19.0517 9.79183 18.9519 10.0088C18.8985 10.1249 18.7823 10.1994 18.6544 10.1994H15.0602C14.8334 10.1994 14.6752 9.9744 14.7521 9.76101C14.7988 9.63109 14.9221 9.54448 15.0602 9.54448H18.6544ZM18.0912 10.8543C18.33 10.8543 18.4885 11.1016 18.3887 11.3186C18.3353 11.4348 18.2191 11.5092 18.0912 11.5092H15.0602C14.8334 11.5092 14.6752 11.2842 14.7521 11.0708C14.7988 10.9409 14.9221 10.8543 15.0602 10.8543H18.0912ZM19.7412 7.60808C19.864 7.70244 19.8946 7.87094 19.8297 8.01155C19.7277 8.23256 19.4398 8.28985 19.2332 8.16108C19.2162 8.15046 19.1991 8.14006 19.1819 8.12988C19.0269 8.03819 18.8642 7.96725 18.694 7.91704C18.5237 7.86683 18.3447 7.84172 18.1569 7.84172C17.7858 7.84172 17.4518 7.94432 17.1549 8.14953C16.858 8.35473 16.6234 8.65708 16.4509 9.05657C16.2784 9.45606 16.1922 9.94615 16.1922 10.5268C16.1922 11.1075 16.2784 11.5976 16.4509 11.9971C16.6234 12.3966 16.858 12.6989 17.1549 12.9041C17.4518 13.1093 17.7858 13.2119 18.1569 13.2119C18.349 13.2119 18.5302 13.1868 18.7005 13.1366C18.873 13.0864 19.0334 13.0177 19.1819 12.9303C19.1894 12.926 19.1969 12.9216 19.2044 12.9171C19.4146 12.7928 19.7018 12.852 19.8076 13.0721C19.8776 13.2178 19.8471 13.3947 19.7171 13.4906C19.5378 13.6229 19.3387 13.7287 19.1196 13.8079C18.8118 13.9171 18.4909 13.9716 18.1569 13.9716C17.6199 13.9716 17.144 13.8319 16.7292 13.5525C16.3166 13.2731 15.9925 12.8758 15.7567 12.3606C15.5231 11.8454 15.4063 11.2341 15.4063 10.5268C15.4063 9.81954 15.5231 9.20829 15.7567 8.6931C15.9925 8.17791 16.3166 7.7806 16.7292 7.50117C17.144 7.22174 17.6199 7.08203 18.1569 7.08203C18.504 7.08203 18.8282 7.14206 19.1295 7.26213C19.3515 7.34998 19.5554 7.4653 19.7412 7.60808Z" fill="#FF6433"/>
</svg>
