<svg width="37" height="37" viewBox="0 0 37 37" fill="none" xmlns="http://www.w3.org/2000/svg">
    <path d="M34.5312 12.9453H31.0859V2.91594C31.085 2.27548 30.8302 1.66151 30.3773 1.20864C29.9244 0.755764 29.3105 0.50093 28.67 0.5L2.91594 0.5C2.27548 0.50093 1.66151 0.755764 1.20864 1.20864C0.755764 1.66151 0.50093 2.27548 0.5 2.91594L0.5 22.3419C0.50093 22.9823 0.755764 23.5963 1.20864 24.0492C1.66151 24.502 2.27548 24.7569 2.91594 24.7578H6.47656V28.67C6.47649 29.1736 6.63376 29.6645 6.92639 30.0743C7.21902 30.4841 7.63238 30.7922 8.1087 30.9556C8.58501 31.119 9.10047 31.1294 9.58301 30.9855C10.0656 30.8416 10.4911 30.5505 10.8001 30.1529L12.9453 27.3945V29.7148C12.9453 30.237 13.1527 30.7377 13.5219 31.107C13.8912 31.4762 14.3919 31.6836 14.9141 31.6836H25.6016L28.7656 35.7406C29.0183 36.0616 29.3647 36.2961 29.7566 36.4114C30.1485 36.5268 30.5666 36.5174 30.9529 36.3845C31.3393 36.2516 31.6747 36.0018 31.9127 35.6697C32.1507 35.3377 32.2795 34.9398 32.2812 34.5312V31.6766H34.5312C35.0534 31.6766 35.5542 31.4691 35.9234 31.0999C36.2926 30.7307 36.5 30.23 36.5 29.7078V14.9141C36.5 14.3919 36.2926 13.8912 35.9234 13.5219C35.5542 13.1527 35.0534 12.9453 34.5312 12.9453ZM9.96758 29.506C9.79326 29.7298 9.55345 29.8935 9.2816 29.9744C9.00975 30.0553 8.71943 30.0493 8.45116 29.9572C8.18288 29.8651 7.95004 29.6916 7.78513 29.4609C7.62022 29.2301 7.53146 28.9536 7.53125 28.67V24.2305C7.53125 24.0906 7.47569 23.9565 7.37679 23.8576C7.2779 23.7587 7.14377 23.7031 7.00391 23.7031H2.91594C2.55508 23.7026 2.20917 23.559 1.954 23.3038C1.69884 23.0486 1.55525 22.7027 1.55469 22.3419V2.91594C1.55525 2.55508 1.69884 2.20917 1.954 1.954C2.20917 1.69884 2.55508 1.55525 2.91594 1.55469H28.67C29.0309 1.55525 29.3768 1.69884 29.6319 1.954C29.8871 2.20917 30.0307 2.55508 30.0312 2.91594V22.3419C30.0307 22.7027 29.8871 23.0486 29.6319 23.3038C29.3768 23.559 29.0309 23.7026 28.67 23.7031H14.7383C14.658 23.7032 14.5787 23.7216 14.5066 23.7569C14.4344 23.7922 14.3713 23.8436 14.322 23.907L9.96758 29.506ZM35.4453 29.712C35.4453 29.8321 35.4217 29.9509 35.3757 30.0618C35.3298 30.1727 35.2625 30.2735 35.1776 30.3584C35.0927 30.4432 34.9919 30.5106 34.881 30.5565C34.7701 30.6025 34.6513 30.6261 34.5312 30.6261H31.7539C31.614 30.6261 31.4799 30.6817 31.381 30.7806C31.2821 30.8794 31.2266 31.0136 31.2266 31.1534V34.5312C31.2266 34.7737 31.1303 35.0062 30.9588 35.1776C30.7874 35.349 30.5549 35.4453 30.3125 35.4453C30.1737 35.4459 30.0365 35.4145 29.9118 35.3535C29.787 35.2926 29.678 35.2037 29.5932 35.0938L26.2752 30.8279C26.2257 30.7647 26.1626 30.7135 26.0905 30.6783C26.0183 30.6431 25.9392 30.6247 25.8589 30.6247H14.9141C14.6716 30.6247 14.4391 30.5284 14.2677 30.357C14.0963 30.1855 14 29.953 14 29.7106V26.0389L14.9963 24.7578H28.67C29.3105 24.7569 29.9244 24.502 30.3773 24.0492C30.8302 23.5963 31.085 22.9823 31.0859 22.3419V14H34.5312C34.7737 14 35.0062 14.0963 35.1776 14.2677C35.349 14.4391 35.4453 14.6716 35.4453 14.9141V29.712Z" fill="#FF6433"/>
    <path d="M27.5703 20.0117V5.24609C27.5699 4.82663 27.4031 4.42445 27.1065 4.12784C26.8099 3.83123 26.4077 3.66443 25.9883 3.66406H5.59766C5.17819 3.66443 4.77601 3.83123 4.4794 4.12784C4.18279 4.42445 4.016 4.82663 4.01562 5.24609V20.0117C4.016 20.4312 4.18279 20.8334 4.4794 21.13C4.77601 21.4266 5.17819 21.5934 5.59766 21.5938H25.9883C26.4077 21.5934 26.8099 21.4266 27.1065 21.13C27.4031 20.8334 27.5699 20.4312 27.5703 20.0117ZM5.59766 4.71875H25.9883C26.1281 4.71875 26.2623 4.77431 26.3612 4.87321C26.4601 4.9721 26.5156 5.10623 26.5156 5.24609V6.47656H5.07031V5.24609C5.07031 5.10623 5.12587 4.9721 5.22477 4.87321C5.32366 4.77431 5.4578 4.71875 5.59766 4.71875ZM5.07031 20.0117V7.53125H26.5156V20.0117C26.5156 20.1516 26.4601 20.2857 26.3612 20.3846C26.2623 20.4835 26.1281 20.5391 25.9883 20.5391H5.59766C5.4578 20.5391 5.32366 20.4835 5.22477 20.3846C5.12587 20.2857 5.07031 20.1516 5.07031 20.0117Z" fill="#FF6433"/>
    <path d="M23.1758 9.99219H14.0352C13.6156 9.99219 13.2132 10.1589 12.9165 10.4556C12.6198 10.7522 12.4531 11.1546 12.4531 11.5742C12.4531 11.9938 12.6198 12.3962 12.9165 12.6929C13.2132 12.9896 13.6156 13.1562 14.0352 13.1562H23.1758C23.5954 13.1562 23.9978 12.9896 24.2944 12.6929C24.5911 12.3962 24.7578 11.9938 24.7578 11.5742C24.7578 11.1546 24.5911 10.7522 24.2944 10.4556C23.9978 10.1589 23.5954 9.99219 23.1758 9.99219ZM23.1758 12.1016H14.0352C13.8953 12.1016 13.7612 12.046 13.6623 11.9471C13.5634 11.8482 13.5078 11.7141 13.5078 11.5742C13.5078 11.4344 13.5634 11.3002 13.6623 11.2013C13.7612 11.1024 13.8953 11.0469 14.0352 11.0469H23.1758C23.3156 11.0469 23.4498 11.1024 23.5487 11.2013C23.6476 11.3002 23.7031 11.4344 23.7031 11.5742C23.7031 11.7141 23.6476 11.8482 23.5487 11.9471C23.4498 12.046 23.3156 12.1016 23.1758 12.1016ZM8.41016 13.1562H9.11328C9.53286 13.1562 9.93526 12.9896 10.2319 12.6929C10.5286 12.3962 10.6953 11.9938 10.6953 11.5742C10.6953 11.1546 10.5286 10.7522 10.2319 10.4556C9.93526 10.1589 9.53286 9.99219 9.11328 9.99219H8.41016C7.99058 9.99219 7.58818 10.1589 7.29149 10.4556C6.9948 10.7522 6.82813 11.1546 6.82812 11.5742C6.82813 11.9938 6.9948 12.3962 7.29149 12.6929C7.58818 12.9896 7.99058 13.1562 8.41016 13.1562ZM8.41016 11.0469H9.11328C9.25314 11.0469 9.38727 11.1024 9.48617 11.2013C9.58507 11.3002 9.64062 11.4344 9.64062 11.5742C9.64062 11.7141 9.58507 11.8482 9.48617 11.9471C9.38727 12.046 9.25314 12.1016 9.11328 12.1016H8.41016C8.2703 12.1016 8.13616 12.046 8.03727 11.9471C7.93837 11.8482 7.88281 11.7141 7.88281 11.5742C7.88281 11.4344 7.93837 11.3002 8.03727 11.2013C8.13616 11.1024 8.2703 11.0469 8.41016 11.0469ZM23.1758 14.9141H8.41016C7.99058 14.9141 7.58818 15.0807 7.29149 15.3774C6.9948 15.6741 6.82813 16.0765 6.82812 16.4961C6.82813 16.9157 6.9948 17.3181 7.29149 17.6148C7.58818 17.9114 7.99058 18.0781 8.41016 18.0781H23.1758C23.5954 18.0781 23.9978 17.9114 24.2944 17.6148C24.5911 17.3181 24.7578 16.9157 24.7578 16.4961C24.7578 16.0765 24.5911 15.6741 24.2944 15.3774C23.9978 15.0807 23.5954 14.9141 23.1758 14.9141ZM23.1758 17.0234H8.41016C8.2703 17.0234 8.13616 16.9679 8.03727 16.869C7.93837 16.7701 7.88281 16.636 7.88281 16.4961C7.88281 16.3562 7.93837 16.2221 8.03727 16.1232C8.13616 16.0243 8.2703 15.9688 8.41016 15.9688H23.1758C23.3156 15.9688 23.4498 16.0243 23.5487 16.1232C23.6476 16.2221 23.7031 16.3562 23.7031 16.4961C23.7031 16.636 23.6476 16.7701 23.5487 16.869C23.4498 16.9679 23.3156 17.0234 23.1758 17.0234ZM17.9466 26.1085H17.2435C16.8239 26.1085 16.4215 26.2752 16.1249 26.5719C15.8282 26.8686 15.6615 27.271 15.6615 27.6905C15.6615 28.1101 15.8282 28.5125 16.1249 28.8092C16.4215 29.1059 16.8239 29.2726 17.2435 29.2726H17.9466C18.3662 29.2726 18.7686 29.1059 19.0653 28.8092C19.362 28.5125 19.5287 28.1101 19.5287 27.6905C19.5287 27.271 19.362 26.8686 19.0653 26.5719C18.7686 26.2752 18.3662 26.1085 17.9466 26.1085ZM17.9466 28.2179H17.2435C17.1037 28.2179 16.9695 28.1623 16.8706 28.0634C16.7717 27.9645 16.7162 27.8304 16.7162 27.6905C16.7162 27.5507 16.7717 27.4166 16.8706 27.3177C16.9695 27.2188 17.1037 27.1632 17.2435 27.1632H17.9466C18.0865 27.1632 18.2206 27.2188 18.3195 27.3177C18.4184 27.4166 18.474 27.5507 18.474 27.6905C18.474 27.8304 18.4184 27.9645 18.3195 28.0634C18.2206 28.1623 18.0865 28.2179 17.9466 28.2179ZM23.5716 26.1085H22.8685C22.4489 26.1085 22.0465 26.2752 21.7499 26.5719C21.4532 26.8686 21.2865 27.271 21.2865 27.6905C21.2865 28.1101 21.4532 28.5125 21.7499 28.8092C22.0465 29.1059 22.4489 29.2726 22.8685 29.2726H23.5716C23.9912 29.2726 24.3936 29.1059 24.6903 28.8092C24.987 28.5125 25.1537 28.1101 25.1537 27.6905C25.1537 27.271 24.987 26.8686 24.6903 26.5719C24.3936 26.2752 23.9912 26.1085 23.5716 26.1085ZM23.5716 28.2179H22.8685C22.7287 28.2179 22.5945 28.1623 22.4956 28.0634C22.3967 27.9645 22.3412 27.8304 22.3412 27.6905C22.3412 27.5507 22.3967 27.4166 22.4956 27.3177C22.5945 27.2188 22.7287 27.1632 22.8685 27.1632H23.5716C23.7115 27.1632 23.8456 27.2188 23.9445 27.3177C24.0434 27.4166 24.099 27.5507 24.099 27.6905C24.099 27.8304 24.0434 27.9645 23.9445 28.0634C23.8456 28.1623 23.7115 28.2179 23.5716 28.2179Z" fill="#FF6433"/>
</svg>
