<svg width="36" height="36" viewBox="0 0 36 36" fill="none" xmlns="http://www.w3.org/2000/svg">
    <path d="M25.2967 1H6.61961C6.45514 1.00056 6.2976 1.06627 6.18148 1.18273C6.06535 1.29919 6.00009 1.45692 6 1.62139V29.7868C6 29.9516 6.06547 30.1097 6.182 30.2262C6.29853 30.3427 6.45658 30.4082 6.62139 30.4082H8.21923V33.5254C8.21913 33.6356 8.24831 33.7437 8.30377 33.8389C8.35923 33.9341 8.43899 34.0128 8.53487 34.0669C8.63076 34.1211 8.73932 34.1489 8.84945 34.1473C8.95957 34.1457 9.0673 34.1149 9.16161 34.058L11.1912 32.8327L13.2226 34.0591C13.3169 34.116 13.4247 34.1468 13.5348 34.1484C13.6449 34.1499 13.7535 34.1222 13.8494 34.068C13.9452 34.0138 14.025 33.9351 14.0805 33.84C14.1359 33.7448 14.1651 33.6366 14.165 33.5265V30.4093H25.2967C26.4319 30.4077 27.5201 29.9558 28.3225 29.1529C29.125 28.35 29.5762 27.2615 29.5771 26.1263V5.28223C29.5759 4.14719 29.1246 3.05897 28.3222 2.25621C27.5197 1.45345 26.4317 1.00169 25.2967 1ZM7.24277 2.24277H8.92939V29.1654H7.24277V2.24277ZM12.924 32.4243L11.514 31.5721C11.4172 31.5136 11.3062 31.4826 11.193 31.4826C11.0798 31.4826 10.9688 31.5136 10.872 31.5721L9.462 32.4243V30.4082H12.924V32.4243ZM28.3344 26.1263C28.3334 26.9321 28.0129 27.7045 27.4432 28.2743C26.8734 28.844 26.101 29.1645 25.2953 29.1654H10.169V2.24277H25.2953C26.101 2.24371 26.8736 2.56425 27.4433 3.13407C28.0131 3.70388 28.3335 4.47644 28.3344 5.28223V26.1263Z" fill="#FF6433"/>
    <path d="M22.1883 9.16045C21.4995 9.16196 20.8328 9.40355 20.3029 9.84362C19.7738 9.40218 19.1065 9.1604 18.4174 9.1604C17.7283 9.1604 17.0611 9.40218 16.532 9.84362C16.1873 9.55766 15.7821 9.35381 15.3471 9.24747C14.912 9.14114 14.4585 9.13511 14.0208 9.22984C13.583 9.32458 13.1726 9.51759 12.8204 9.79429C12.4683 10.071 12.1836 10.4241 11.988 10.827C11.7925 11.2299 11.691 11.672 11.6914 12.1198C11.6918 12.5677 11.794 13.0096 11.9903 13.4121C12.1866 13.8147 12.4719 14.1673 12.8245 14.4434C13.1772 14.7195 13.5879 14.9118 14.0258 15.0057V20.3014C14.0258 20.4662 14.0913 20.6242 14.2078 20.7407C14.3244 20.8573 14.4824 20.9227 14.6472 20.9227H22.1883C22.3531 20.9227 22.5112 20.8573 22.6277 20.7407C22.7443 20.6242 22.8097 20.4662 22.8097 20.3014V15.0057C23.5232 14.8523 24.1547 14.4404 24.5827 13.8492C25.0106 13.258 25.2047 12.5294 25.1275 11.8037C25.0504 11.078 24.7074 10.4064 24.1648 9.91843C23.6222 9.43043 22.9181 9.16044 22.1883 9.16045ZM21.567 19.68H15.2686V19.0692H21.567V19.68ZM22.1883 13.8287C22.0236 13.8287 21.8656 13.8942 21.7491 14.0108C21.6326 14.1273 21.5671 14.2853 21.567 14.45V17.8265H15.2686V14.45C15.2685 14.2853 15.203 14.1273 15.0865 14.0108C14.97 13.8942 14.812 13.8287 14.6472 13.8287C14.4202 13.8319 14.1948 13.79 13.9842 13.7054C13.7735 13.6208 13.5818 13.4952 13.4201 13.3358C13.2584 13.1765 13.13 12.9865 13.0424 12.7771C12.9548 12.5677 12.9097 12.343 12.9097 12.1159C12.9097 11.8889 12.9548 11.6642 13.0424 11.4547C13.13 11.2453 13.2584 11.0554 13.4201 10.8961C13.5818 10.7367 13.7735 10.611 13.9842 10.5264C14.1948 10.4418 14.4202 10.4 14.6472 10.4032C14.9173 10.4024 15.1838 10.4661 15.4243 10.589C15.6649 10.7119 15.8726 10.8904 16.0302 11.1098C16.0906 11.1849 16.1671 11.2456 16.254 11.2872C16.341 11.3288 16.4361 11.3505 16.5325 11.3505C16.6289 11.3505 16.724 11.3288 16.811 11.2872C16.8979 11.2456 16.9744 11.1849 17.0348 11.1098C17.193 10.8911 17.4009 10.713 17.6414 10.5901C17.8818 10.4673 18.148 10.4033 18.418 10.4033C18.688 10.4033 18.9541 10.4673 19.1946 10.5901C19.435 10.713 19.6429 10.8911 19.8012 11.1098C19.8615 11.185 19.9379 11.2457 20.0248 11.2873C20.1117 11.329 20.2069 11.3507 20.3032 11.3507C20.3996 11.3507 20.4948 11.329 20.5817 11.2873C20.6686 11.2457 20.745 11.185 20.8053 11.1098C20.9632 10.8903 21.1712 10.7116 21.4121 10.5887C21.653 10.4658 21.9197 10.4022 22.1901 10.4032C22.4171 10.4 22.6425 10.4418 22.8532 10.5264C23.0638 10.611 23.2556 10.7367 23.4172 10.8961C23.5789 11.0554 23.7073 11.2453 23.7949 11.4547C23.8825 11.6642 23.9277 11.8889 23.9277 12.1159C23.9277 12.343 23.8825 12.5677 23.7949 12.7771C23.7073 12.9865 23.5789 13.1765 23.4172 13.3358C23.2556 13.4952 23.0638 13.6208 22.8532 13.7054C22.6425 13.79 22.4171 13.8319 22.1901 13.8287H22.1883Z" fill="#FF6433"/>
</svg>
