<svg width="28" height="28" viewBox="0 0 28 28" fill="none" xmlns="http://www.w3.org/2000/svg">
<path d="M25.4399 11.7151H24.5002V11.6667H14.0002V16.3333H20.5936C19.6317 19.0499 17.0469 21 14.0002 21C10.1344 21 7.00016 17.8658 7.00016 14C7.00016 10.1343 10.1344 7 14.0002 7C15.7846 7 17.408 7.67317 18.6441 8.77275L21.944 5.47284C19.8603 3.53092 17.0732 2.33334 14.0002 2.33334C7.55725 2.33334 2.3335 7.55709 2.3335 14C2.3335 20.4429 7.55725 25.6667 14.0002 25.6667C20.4431 25.6667 25.6668 20.4429 25.6668 14C25.6668 13.2178 25.5863 12.4542 25.4399 11.7151Z" fill="#FBC02D"/>
<path d="M3.67871 8.56975L7.51179 11.3808C8.54896 8.813 11.0608 7 14.0002 7C15.7846 7 17.408 7.67317 18.6441 8.77275L21.944 5.47284C19.8604 3.53092 17.0732 2.33334 14.0002 2.33334C9.51904 2.33334 5.63288 4.86325 3.67871 8.56975Z" fill="#E53935"/>
<path d="M14 25.6667C17.0135 25.6667 19.7517 24.5134 21.8219 22.638L18.2111 19.5825C17.0398 20.4698 15.5838 21 14 21C10.9655 21 8.38894 19.0651 7.41827 16.3648L3.61377 19.2961C5.5446 23.0743 9.46577 25.6667 14 25.6667Z" fill="#4CAF50"/>
<path d="M25.4398 11.7151L25.4304 11.6667H24.5H14V16.3333H20.5934C20.1314 17.6382 19.292 18.7635 18.2093 19.5831C18.2099 19.5825 18.2105 19.5825 18.2111 19.5819L21.8219 22.6374C21.5664 22.8696 25.6667 19.8333 25.6667 14C25.6667 13.2177 25.5862 12.4542 25.4398 11.7151Z" fill="#1565C0"/>
</svg>
