<svg width="24" height="24" viewBox="0 0 24 24" fill="none" xmlns="http://www.w3.org/2000/svg">
<g clip-path="url(#clip0_224_4354)">
<mask id="path-1-inside-1_224_4354" fill="white">
<rect width="11" height="11" rx="1"/>
</mask>
<rect width="11" height="11" rx="1" stroke="#181818" stroke-width="3" mask="url(#path-1-inside-1_224_4354)"/>
<rect x="4" y="4" width="3" height="3" rx="1" fill="#181818"/>
<mask id="path-3-inside-2_224_4354" fill="white">
<rect x="13" width="11" height="11" rx="1"/>
</mask>
<rect x="13" width="11" height="11" rx="1" stroke="#181818" stroke-width="3" mask="url(#path-3-inside-2_224_4354)"/>
<rect x="17" y="4" width="3" height="3" rx="1" fill="#181818"/>
<mask id="path-5-inside-3_224_4354" fill="white">
<rect y="13" width="11" height="11" rx="1"/>
</mask>
<rect y="13" width="11" height="11" rx="1" stroke="#181818" stroke-width="3" mask="url(#path-5-inside-3_224_4354)"/>
<rect x="4" y="17" width="3" height="3" rx="1" fill="#181818"/>
<rect x="13" y="13" width="3" height="3" rx="1" fill="#181818"/>
<rect x="21" y="13" width="3" height="3" rx="1" fill="#181818"/>
<rect x="17" y="17" width="3" height="3" rx="1" fill="#181818"/>
<rect x="13" y="21" width="3" height="3" rx="1" fill="#181818"/>
<rect x="21" y="21" width="3" height="3" rx="1" fill="#181818"/>
</g>
<defs>
<clipPath id="clip0_224_4354">
<rect width="24" height="24" fill="white"/>
</clipPath>
</defs>
</svg>
