<svg width="22" height="22" viewBox="0 0 22 22" fill="none" xmlns="http://www.w3.org/2000/svg">
    <path d="M7.37658 14.6163L1.71973 20.2732M10.6943 5.64185L9.13338 7.20273C9.00606 7.33006 8.9424 7.39372 8.86986 7.4443C8.80548 7.4892 8.73604 7.52637 8.66297 7.55503C8.58065 7.58732 8.49236 7.60498 8.3158 7.64029L4.65133 8.37318C3.69903 8.56364 3.22288 8.65887 3.00012 8.90993C2.80605 9.12864 2.71743 9.42133 2.75758 9.71095C2.80367 10.0434 3.14703 10.3868 3.83375 11.0735L10.9195 18.1592C11.6062 18.8459 11.9496 19.1893 12.282 19.2354C12.5716 19.2755 12.8643 19.1869 13.083 18.9929C13.3341 18.7701 13.4293 18.2939 13.6198 17.3416L14.3527 13.6772C14.388 13.5006 14.4056 13.4123 14.4379 13.33C14.4666 13.2569 14.5038 13.1875 14.5487 13.1231C14.5992 13.0506 14.6629 12.9869 14.7902 12.8596L16.3511 11.2987C16.4325 11.2173 16.4732 11.1766 16.518 11.1411C16.5577 11.1095 16.5998 11.081 16.6439 11.0558C16.6935 11.0275 16.7464 11.0048 16.8522 10.9594L19.3466 9.89043C20.0743 9.57856 20.4381 9.42262 20.6034 9.17064C20.7479 8.95028 20.7996 8.68178 20.7473 8.42351C20.6874 8.12816 20.4075 7.84825 19.8477 7.28842L14.7045 2.14529C14.1447 1.58546 13.8648 1.30555 13.5695 1.24568C13.3112 1.19332 13.0427 1.24503 12.8223 1.38956C12.5703 1.55484 12.4144 1.91869 12.1025 2.64639L11.0335 5.14075C10.9882 5.24656 10.9655 5.29947 10.9372 5.34908C10.912 5.39316 10.8835 5.43525 10.8519 5.47499C10.8164 5.51974 10.7757 5.56044 10.6943 5.64185Z" stroke="black" stroke-width="2" stroke-linecap="round" stroke-linejoin="round"/>
</svg>
