<svg width="24" height="24" viewBox="0 0 24 24" fill="none" xmlns="http://www.w3.org/2000/svg">
    <rect width="24" height="24" rx="12" fill="#1F1F1F" fill-opacity="0.8"/>
    <path d="M11.9627 14C9.32095 14 6.97168 15.2755 5.47601 17.255C5.15411 17.681 4.99315 17.894 4.99842 18.1819C5.00248 18.4043 5.14215 18.6849 5.31716 18.8222C5.54367 19 5.85758 19 6.48538 19H17.44C18.0678 19 18.3817 19 18.6082 18.8222C18.7832 18.6849 18.9229 18.4043 18.927 18.1819C18.9322 17.894 18.7713 17.681 18.4494 17.255C16.9537 15.2755 14.6044 14 11.9627 14Z" fill="white"/>
    <path d="M11.9627 11.5C14.0338 11.5 15.7127 9.82107 15.7127 7.75C15.7127 5.67893 14.0338 4 11.9627 4C9.89162 4 8.21269 5.67893 8.21269 7.75C8.21269 9.82107 9.89162 11.5 11.9627 11.5Z" fill="white"/>
</svg>
