<svg width="21" height="21" viewBox="0 0 21 21" fill="none" xmlns="http://www.w3.org/2000/svg">
    <path d="M14.7244 13.0369H13.8356L13.5206 12.7331C14.6231 11.4506 15.2869 9.78561 15.2869 7.97436C15.2869 3.93562 12.0131 0.661865 7.97436 0.661865C3.93562 0.661865 0.661865 3.93562 0.661865 7.97436C0.661865 12.0131 3.93562 15.2869 7.97436 15.2869C9.78561 15.2869 11.4506 14.6231 12.7331 13.5206L13.0369 13.8356V14.7244L18.6619 20.3381L20.3381 18.6619L14.7244 13.0369ZM7.97436 13.0369C5.17311 13.0369 2.91186 10.7756 2.91186 7.97436C2.91186 5.17311 5.17311 2.91186 7.97436 2.91186C10.7756 2.91186 13.0369 5.17311 13.0369 7.97436C13.0369 10.7756 10.7756 13.0369 7.97436 13.0369Z" fill="white"/>
</svg>
