<svg width="349" height="73" viewBox="0 0 349 73" fill="none" xmlns="http://www.w3.org/2000/svg">
    <path d="M90.3623 52.9858H96.1696V40.7202H104.993C112.446 40.7202 117.545 36.4233 117.545 30.1473C117.545 23.8713 112.493 19.5327 105.039 19.5327H90.3623V52.9858ZM96.1696 36.0483V24.2046H104.425C108.769 24.2046 111.69 26.6577 111.69 30.1473C111.69 33.6421 108.722 36.0483 104.425 36.0483H96.1696Z" fill="#FF4B19"/>
    <path d="M137.219 53.9286C142.458 53.9286 146.984 51.4755 148.682 47.939L145.146 45.7672C143.729 48.0328 140.755 49.7307 137.359 49.7307C132.781 49.7307 129.385 46.8505 128.911 42.5588H147.88C148.026 41.9911 148.073 41.189 148.073 40.5276C148.026 33.2151 143.26 28.0276 135.99 28.0276C128.583 28.0276 123.396 33.3088 123.396 40.814C123.396 48.4547 129.151 53.9286 137.219 53.9286ZM128.911 38.9234C129.432 34.9599 132.219 32.2255 135.99 32.2255C139.672 32.2255 142.219 34.6786 142.599 38.9234H128.911Z" fill="#FF4B19"/>
    <path d="M167.7 53.9286C175.58 53.9286 180.767 48.788 180.767 41.0015C180.767 33.1682 175.58 28.0276 167.7 28.0276C159.819 28.0276 154.632 33.1682 154.632 41.0015C154.632 48.788 159.819 53.9286 167.7 53.9286ZM167.7 49.3974C162.934 49.3974 159.913 46.0953 159.913 41.0015C159.913 35.9078 162.934 32.6474 167.7 32.6474C172.418 32.6474 175.486 35.9078 175.486 41.0015C175.486 46.0953 172.418 49.3974 167.7 49.3974Z" fill="#FF4B19"/>
    <path d="M187.802 62.8922H193.13V48.6943H193.177C195.067 51.9495 198.135 53.8349 202.005 53.8349C208.656 53.8349 213.468 48.5484 213.468 41.0015C213.468 33.4495 208.656 28.1682 201.953 28.1682C198.041 28.1682 194.927 30.0536 193.083 33.3557H193.036L192.328 28.9703H187.802V62.8922ZM200.541 49.163C196.15 49.163 192.942 45.6265 192.942 41.0015C192.942 36.3297 196.15 32.7932 200.541 32.7932C204.927 32.7932 208.135 36.2828 208.135 41.0015C208.135 45.6265 204.927 49.163 200.541 49.163Z" fill="#FF4B19"/>
    <path d="M220.5 52.9859H225.828V18.1161H220.5V52.9859Z" fill="#FF4B19"/>
    <path d="M246.686 53.9286C251.926 53.9286 256.452 51.4755 258.15 47.939L254.613 45.7672C253.197 48.0328 250.223 49.7307 246.827 49.7307C242.249 49.7307 238.853 46.8505 238.379 42.5588H257.348C257.493 41.9911 257.54 41.189 257.54 40.5276C257.493 33.2151 252.728 28.0276 245.457 28.0276C238.051 28.0276 232.863 33.3088 232.863 40.814C232.863 48.4547 238.618 53.9286 246.686 53.9286ZM238.379 38.9234C238.9 34.9599 241.686 32.2255 245.457 32.2255C249.139 32.2255 251.686 34.6786 252.066 38.9234H238.379Z" fill="#FF4B19"/>
    <path d="M265.604 52.9858H289.245V48.0796H271.271V38.0275H286.885V33.5483H271.271V24.439H288.776V19.5327H265.604V52.9858Z" fill="#FF4B19"/>
    <path d="M303.777 53.8349C307.934 53.8349 311.189 51.9026 312.793 48.9286H312.84L312.934 49.9182C313.121 52.0901 315.006 53.8349 317.605 53.8349C319.631 53.8349 321.85 52.939 323.079 51.4755L321.236 48.4547C320.72 49.2099 319.965 49.7307 319.35 49.7307C318.548 49.7307 318.074 49.0693 318.074 48.0797V37.2724C318.074 31.6109 313.642 28.0276 307.079 28.0276C300.569 28.0276 295.897 31.7047 295.475 36.1422L300.522 37.3661C300.71 34.7255 303.355 32.2724 307.131 32.2724C310.527 32.2724 312.84 33.9234 312.84 36.4703C312.84 37.4599 312.085 38.1213 310.949 38.262L305.621 38.8765C298.116 39.7724 294.861 42.7932 294.861 46.7568C294.861 51.0068 298.543 53.8349 303.777 53.8349ZM305.381 49.7307C302.366 49.7307 300.147 48.4078 300.147 46.3349C300.147 44.4911 301.751 42.887 306.657 42.3245L312.746 41.6161V42.9338C312.746 46.9443 309.631 49.7307 305.381 49.7307Z" fill="#FF4B19"/>
    <path d="M340.158 53.9286C343.934 53.9286 347.518 51.8088 348.7 48.314L346.101 45.5328C345.299 48.1265 343.414 49.5432 341.101 49.5432C338.742 49.5432 337.091 47.7463 337.091 45.1057L337.044 33.1682H347.236V28.9703H337.044L337.091 20.9495L331.757 22.1265V28.9703H326.851V33.1682H331.757V45.814C331.757 50.7203 335.059 53.9286 340.158 53.9286Z" fill="#FF4B19"/>
    <mask id="mask0_19_153" style="mask-type:luminance" maskUnits="userSpaceOnUse" x="0" y="0" width="73" height="73">
        <path d="M0 0H72.4427V72.4427H0V0Z" fill="white"/>
    </mask>
    <g mask="url(#mask0_19_153)">
        <mask id="mask1_19_153" style="mask-type:luminance" maskUnits="userSpaceOnUse" x="0" y="0" width="73" height="73">
            <path d="M72.4427 36.224C72.4427 56.224 56.2292 72.4427 36.224 72.4427C16.2188 72.4427 0 56.224 0 36.224C0 16.2188 16.2188 0 36.224 0C56.2292 0 72.4427 16.2188 72.4427 36.224Z" fill="white"/>
        </mask>
        <g mask="url(#mask1_19_153)">
            <path d="M0 0H72.4427V72.4427H0V0Z" fill="#070030"/>
        </g>
    </g>
    <mask id="mask2_19_153" style="mask-type:luminance" maskUnits="userSpaceOnUse" x="14" y="26" width="37" height="17">
        <path d="M14.6821 26.1459H50.6821V42.1459H14.6821V26.1459Z" fill="white"/>
    </mask>
    <g mask="url(#mask2_19_153)">
        <mask id="mask3_19_153" style="mask-type:luminance" maskUnits="userSpaceOnUse" x="15" y="24" width="35" height="18">
            <path d="M15.7864 32.8959L47.5989 24.1302L49.9895 32.8073L18.177 41.573L15.7864 32.8959Z" fill="white"/>
        </mask>
        <g mask="url(#mask3_19_153)">
            <mask id="mask4_19_153" style="mask-type:luminance" maskUnits="userSpaceOnUse" x="7" y="20" width="62" height="43">
                <path d="M7.23438 35.2552L61.224 20.375L68.6615 47.3698L14.6719 62.2448L7.23438 35.2552Z" fill="white"/>
            </mask>
            <g mask="url(#mask4_19_153)">
                <path d="M68.6562 47.3698L67.5468 47.6771C63.6146 33.4063 48.8073 24.9948 34.5312 28.9271C20.2604 32.8594 11.8489 47.6719 15.7812 61.9427L14.6718 62.2448C10.5729 47.3646 19.3437 31.9167 34.2291 27.8177C49.1093 23.7136 64.5573 32.4896 68.6562 47.3698Z" fill="#070030"/>
            </g>
        </g>
    </g>
    <mask id="mask5_19_153" style="mask-type:luminance" maskUnits="userSpaceOnUse" x="10" y="7" width="41" height="37">
        <path d="M10.6821 7.47925H50.6821V43.4792H10.6821V7.47925Z" fill="white"/>
    </mask>
    <g mask="url(#mask5_19_153)">
        <mask id="mask6_19_153" style="mask-type:luminance" maskUnits="userSpaceOnUse" x="7" y="0" width="51" height="47">
            <path d="M7.05713 14.698L45.6717 0.916748L57.0988 32.9428L18.4842 46.724L7.05713 14.698Z" fill="white"/>
        </mask>
        <g mask="url(#mask6_19_153)">
            <mask id="mask7_19_153" style="mask-type:luminance" maskUnits="userSpaceOnUse" x="7" y="0" width="51" height="47">
                <path d="M7.05713 14.698L45.6717 0.916748L57.0988 32.9428L18.4842 46.724L7.05713 14.698Z" fill="white"/>
            </mask>
            <g mask="url(#mask7_19_153)">
                <path d="M48.2653 13.2344C48.1508 12.9167 48.0206 12.6094 47.8695 12.3074C47.7185 12.0053 47.5518 11.7188 47.3643 11.4376C47.1768 11.1563 46.9737 10.8907 46.7549 10.6355C46.531 10.3803 46.2966 10.1407 46.0466 9.91152C45.7966 9.68756 45.5362 9.47402 45.2601 9.28131C44.9841 9.0886 44.6976 8.90631 44.4008 8.75006C44.0987 8.5886 43.7914 8.44797 43.4789 8.32297C43.1612 8.20318 42.8383 8.09902 42.5101 8.01568C42.182 7.92714 41.8487 7.86464 41.5101 7.82297C41.1768 7.7761 40.8383 7.75527 40.4945 7.75006C40.156 7.74485 39.8174 7.76569 39.4789 7.80214C39.1403 7.8386 38.8018 7.89589 38.4737 7.97402C38.1403 8.05214 37.8122 8.14589 37.4945 8.26568C37.1716 8.38027 36.8591 8.51569 36.557 8.67193C36.2549 8.82819 35.9581 9.00006 35.6768 9.18756C35.3956 9.37506 35.1247 9.58339 34.8643 9.80214C34.2966 9.33339 33.6716 8.94277 32.9997 8.63548C32.3226 8.32819 31.6195 8.10943 30.8851 7.98964C30.1508 7.86985 29.4112 7.84381 28.6716 7.91673C27.9268 7.98964 27.2081 8.15631 26.5049 8.42193C25.807 8.68235 25.156 9.03131 24.5466 9.4636C23.9424 9.9011 23.4008 10.4011 22.9268 10.9792C22.4528 11.5521 22.0674 12.1771 21.7601 12.8542C21.4528 13.5261 21.2445 14.2292 21.1247 14.9584C20.531 14.9011 19.932 14.9063 19.3331 14.9792C18.7341 15.0469 18.1508 15.1771 17.5831 15.3699C17.0101 15.5678 16.4685 15.8178 15.9528 16.1251C15.4372 16.4324 14.9581 16.7917 14.5153 17.2032C14.0778 17.6094 13.6872 18.0574 13.3435 18.5521C12.9997 19.0417 12.7133 19.5626 12.4841 20.1146C12.2497 20.6667 12.0831 21.2344 11.9737 21.823C11.8695 22.4063 11.8226 22.9949 11.8435 23.5886C11.8643 24.1824 11.9476 24.7709 12.0987 25.3438C12.2445 25.9219 12.4528 26.474 12.7185 27.0001C12.9841 27.5313 13.307 28.0261 13.682 28.4896C14.0622 28.948 14.4789 29.3646 14.9476 29.7344C15.4164 30.1042 15.9164 30.4219 16.4528 30.6876C16.9893 30.948 17.5466 31.1563 18.1299 31.2969C18.7133 31.4428 19.3018 31.5261 19.9008 31.5417C20.5049 31.5626 21.0987 31.5157 21.6924 31.4115L25.9789 43.4271L49.5778 35.0001L45.2185 22.7865C45.9633 22.2553 46.5987 21.6251 47.1351 20.8907C47.6716 20.1563 48.0778 19.3594 48.3487 18.5001C48.6247 17.6355 48.7549 16.7553 48.7393 15.8542C48.7237 14.9532 48.5674 14.0834 48.2653 13.2344Z" fill="white"/>
            </g>
        </g>
    </g>
    <mask id="mask8_19_153" style="mask-type:luminance" maskUnits="userSpaceOnUse" x="10" y="6" width="41" height="39">
        <path d="M10.6821 6.14587H50.6821V44.8125H10.6821V6.14587Z" fill="white"/>
    </mask>
    <g mask="url(#mask8_19_153)">
        <mask id="mask9_19_153" style="mask-type:luminance" maskUnits="userSpaceOnUse" x="7" y="0" width="51" height="47">
            <path d="M7.05713 14.698L45.6717 0.916748L57.0988 32.9428L18.4842 46.724L7.05713 14.698Z" fill="white"/>
        </mask>
        <g mask="url(#mask9_19_153)">
            <mask id="mask10_19_153" style="mask-type:luminance" maskUnits="userSpaceOnUse" x="7" y="0" width="51" height="47">
                <path d="M7.05713 14.698L45.6717 0.916748L57.0988 32.9428L18.4842 46.724L7.05713 14.698Z" fill="white"/>
            </mask>
            <g mask="url(#mask10_19_153)">
                <path d="M49.7706 35.5365L26.1716 43.9584C26.0206 44.0105 25.8748 44.0052 25.7341 43.9375C25.5883 43.8698 25.4893 43.7657 25.4373 43.6198L21.307 32.0417C20.6925 32.1198 20.0727 32.1355 19.4581 32.0886C18.8383 32.0417 18.2341 31.9271 17.6352 31.7552C17.0414 31.5834 16.4737 31.349 15.932 31.0625C15.3852 30.7709 14.88 30.4271 14.406 30.0313C13.9373 29.6355 13.5102 29.198 13.13 28.7136C12.755 28.2344 12.4268 27.7136 12.156 27.1667C11.8904 26.6146 11.6768 26.0417 11.531 25.448C11.38 24.8542 11.2966 24.25 11.2706 23.6355C11.2498 23.0209 11.2914 22.4115 11.3956 21.8073C11.4998 21.198 11.6664 20.6094 11.8956 20.0365C12.1248 19.4636 12.4112 18.9219 12.755 18.4063C13.0935 17.8907 13.4841 17.4167 13.9268 16.9792C14.3695 16.5417 14.8487 16.1563 15.3695 15.8177C15.8904 15.4792 16.4425 15.198 17.0206 14.974C17.5987 14.7448 18.1977 14.5834 18.8123 14.4792C19.4216 14.375 20.0414 14.3334 20.6612 14.3594C20.7393 13.9948 20.8435 13.6355 20.9685 13.2865C21.0935 12.9375 21.2445 12.5938 21.4112 12.2605C21.5779 11.9271 21.7706 11.6042 21.9789 11.2969C22.1873 10.9844 22.4164 10.6927 22.6664 10.4115C22.9112 10.125 23.1768 9.85941 23.4529 9.61462C23.7341 9.36462 24.031 9.13025 24.3383 8.9167C24.6508 8.70316 24.9685 8.51046 25.3018 8.33858C25.6352 8.1667 25.9789 8.01046 26.3331 7.88025C26.682 7.75004 27.0414 7.64066 27.4112 7.55733C27.7758 7.46879 28.1456 7.40629 28.5154 7.36462C28.8904 7.32295 29.2654 7.30733 29.6404 7.31254C30.0154 7.31775 30.3904 7.34379 30.7602 7.39587C31.13 7.44795 31.4998 7.52087 31.8591 7.61983C32.2185 7.71879 32.5727 7.83858 32.9216 7.9792C33.2654 8.11983 33.5987 8.28129 33.9268 8.46358C34.2498 8.65108 34.5623 8.849 34.8591 9.07295C35.3279 8.71358 35.8227 8.40108 36.3487 8.13546C36.8748 7.87504 37.4216 7.6615 37.9893 7.50525C38.557 7.349 39.1352 7.24483 39.7185 7.19795C40.307 7.15108 40.8904 7.1615 41.4737 7.2292C42.057 7.29691 42.63 7.42191 43.1873 7.599C43.7445 7.78129 44.2758 8.01045 44.7914 8.2917C45.3018 8.57816 45.7758 8.90629 46.2237 9.28129C46.6664 9.65629 47.0727 10.073 47.432 10.5313C47.7914 10.9844 48.1091 11.474 48.3695 11.9896C48.6352 12.5052 48.8435 13.0417 49.005 13.6042C49.1612 14.1615 49.2602 14.7292 49.307 15.3125C49.3487 15.8907 49.3331 16.4688 49.2654 17.0469C49.1925 17.625 49.0675 18.1927 48.88 18.7448C48.6977 19.3021 48.4633 19.8334 48.1768 20.3386C47.8852 20.849 47.5518 21.3282 47.1664 21.7709C46.7862 22.2188 46.3643 22.6198 45.9008 22.9844L50.1195 34.8073C50.1716 34.9584 50.1664 35.099 50.0987 35.2448C50.0258 35.3855 49.9216 35.4844 49.7706 35.5365ZM26.3331 42.698L48.8487 34.6615L44.6768 22.9792C44.5831 22.7136 44.6508 22.4948 44.8852 22.3282C45.3175 22.0209 45.7133 21.6719 46.0727 21.2865C46.432 20.9011 46.7498 20.4844 47.0258 20.0313C47.3018 19.5834 47.5258 19.1094 47.7081 18.6198C47.8852 18.125 48.0102 17.6198 48.0883 17.099C48.1612 16.5834 48.1873 16.0625 48.156 15.5417C48.1248 15.0157 48.0414 14.5052 47.9008 14C47.7654 13.4948 47.5779 13.0105 47.3435 12.5469C47.1091 12.0782 46.8279 11.6407 46.4998 11.2344C46.1768 10.823 45.8123 10.4532 45.406 10.1146C45.005 9.78129 44.5727 9.48962 44.1091 9.23962C43.6456 8.99483 43.1612 8.79691 42.656 8.64587C42.1508 8.49483 41.6352 8.39587 41.1091 8.349C40.5779 8.30212 40.0518 8.30733 39.5258 8.36462C38.9998 8.42712 38.4893 8.5365 37.9841 8.69795C37.4789 8.85941 36.9945 9.06775 36.531 9.32816C36.0727 9.58337 35.6404 9.88545 35.2393 10.2292C35.13 10.323 35.005 10.3698 34.8643 10.3698C34.7237 10.375 34.5987 10.3282 34.4945 10.2396C33.9633 9.80212 33.3852 9.43754 32.755 9.15108C32.1248 8.86462 31.4685 8.6667 30.7862 8.55212C30.0987 8.43754 29.4112 8.4167 28.7185 8.48441C28.031 8.55212 27.3591 8.70837 26.7081 8.95316C26.057 9.19795 25.4477 9.52087 24.88 9.92712C24.3123 10.3282 23.8123 10.7969 23.3695 11.3334C22.932 11.8698 22.5675 12.4532 22.281 13.0782C21.9998 13.7084 21.8018 14.3646 21.6925 15.0417C21.6664 15.1927 21.5987 15.3125 21.4737 15.4063C21.3539 15.5 21.2185 15.5417 21.0675 15.5261C19.8956 15.4115 18.755 15.5521 17.6404 15.9532C17.182 16.1146 16.7445 16.3177 16.3227 16.5625C15.9008 16.8073 15.505 17.0886 15.1352 17.4063C14.7654 17.724 14.4268 18.073 14.1248 18.4532C13.8227 18.8334 13.5518 19.2344 13.3279 19.6615C13.0987 20.0886 12.9112 20.5365 12.7654 20.9948C12.6195 21.4584 12.5206 21.9271 12.4633 22.4063C12.406 22.8855 12.3956 23.3646 12.432 23.8438C12.4633 24.323 12.5414 24.7969 12.6664 25.2605C12.7862 25.7292 12.9529 26.1771 13.1612 26.6094C13.3695 27.0417 13.6195 27.4532 13.906 27.8386C14.1925 28.2292 14.5102 28.5834 14.8643 28.9115C15.2185 29.2396 15.5987 29.5313 16.0102 29.7917C16.4216 30.0469 16.8487 30.2605 17.3018 30.4375C17.755 30.6146 18.2185 30.75 18.6977 30.8438C19.1716 30.9323 19.656 30.9792 20.1404 30.9792C20.63 30.9844 21.1143 30.9375 21.5935 30.8542C21.7289 30.8282 21.8591 30.849 21.9841 30.9167C22.1039 30.9844 22.1873 31.0886 22.2341 31.2188L26.3331 42.698Z" fill="white"/>
            </g>
        </g>
    </g>
    <mask id="mask11_19_153" style="mask-type:luminance" maskUnits="userSpaceOnUse" x="22" y="27" width="36" height="33">
        <path d="M22.0156 27.1927H57.2969V59.4792H22.0156V27.1927Z" fill="white"/>
    </mask>
    <g mask="url(#mask11_19_153)">
        <mask id="mask12_19_153" style="mask-type:luminance" maskUnits="userSpaceOnUse" x="22" y="27" width="35" height="33">
            <path d="M39.5104 27.1927C29.849 27.1927 22.0156 34.4167 22.0156 43.3282C22.0156 52.2448 29.849 59.4688 39.5104 59.4688C49.1719 59.4688 57 52.2448 57 43.3282C57 34.4167 49.1719 27.1927 39.5104 27.1927Z" fill="white"/>
        </mask>
        <g mask="url(#mask12_19_153)">
            <path d="M22.0156 27.1927H56.8646V59.4271H22.0156V27.1927Z" fill="white"/>
        </g>
    </g>
    <mask id="mask13_19_153" style="mask-type:luminance" maskUnits="userSpaceOnUse" x="46" y="34" width="5" height="5">
        <path d="M46.1458 34.9688H50.1458V38.9688H46.1458V34.9688Z" fill="white"/>
    </mask>
    <g mask="url(#mask13_19_153)">
        <path d="M50.1458 36.9688C50.1458 38.0781 49.2499 38.9688 48.1458 38.9688C47.526 38.9688 46.9739 38.6927 46.6093 38.25C46.3333 37.9219 46.1666 37.5 46.151 37.0417C46.1458 37.0208 46.1458 36.9948 46.1458 36.9688C46.1458 35.8646 47.0416 34.9688 48.1458 34.9688C48.3749 34.9688 48.5885 35.0104 48.7916 35.0781C49.2135 35.224 49.5728 35.5052 49.8124 35.8698C50.026 36.1823 50.1458 36.5625 50.1458 36.9688Z" fill="black"/>
    </g>
    <mask id="mask14_19_153" style="mask-type:luminance" maskUnits="userSpaceOnUse" x="33" y="40" width="25" height="11">
        <path d="M33.3489 40.8125H57.3489V50.1458H33.3489V40.8125Z" fill="white"/>
    </mask>
    <g mask="url(#mask14_19_153)">
        <mask id="mask15_19_153" style="mask-type:luminance" maskUnits="userSpaceOnUse" x="33" y="39" width="25" height="11">
            <path d="M34.2655 39.5052L57.151 41.7865L56.3593 49.7448L33.4739 47.4636L34.2655 39.5052Z" fill="white"/>
        </mask>
        <g mask="url(#mask15_19_153)">
            <mask id="mask16_19_153" style="mask-type:luminance" maskUnits="userSpaceOnUse" x="33" y="39" width="48" height="14">
                <path d="M34.2655 39.5052L80.0416 44.0677L79.2447 52.0313L33.4739 47.4636L34.2655 39.5052Z" fill="white"/>
            </mask>
            <g mask="url(#mask16_19_153)">
                <path d="M56.9948 43.3491C58.3125 42.8751 59.5416 42.0261 62.9687 42.3647C64.375 42.5105 65.6562 42.9793 66.8177 43.7709C68.1562 44.6928 68.5208 45.2032 69.4687 46.0574C71.7864 48.1407 72.1979 48.4168 72.7187 48.6563C73.3333 48.9428 75.1562 49.7866 76.401 48.9845C77.0729 48.5574 77.6146 47.6303 77.2969 47.0938C77.0052 46.5938 75.8229 45.9949 74.8177 46.9168C74.9479 46.5053 75.1823 46.1668 75.5208 45.8907C75.8594 45.6147 76.2448 45.4532 76.6875 45.3959C77.125 45.3438 77.5469 45.4116 77.9479 45.5938C78.3489 45.7813 78.6666 46.0574 78.9062 46.422C79.5729 47.4793 78.9583 48.8386 78.4479 49.5157C76.9896 51.4532 73.9271 51.5001 72.7604 51.3803C71.2864 51.2293 70 50.8491 68.2448 49.9324C65.5208 48.5157 64.625 48.1199 62.2031 47.1199C60.4531 46.3959 58.6458 45.8543 56.7812 45.4949C54.8854 45.4793 53.0052 45.6563 51.1458 46.0157C48.5781 46.5209 47.6198 46.7293 44.6719 47.5834C42.7656 48.1303 41.4323 48.2501 39.9583 48.1095C38.7916 47.9897 35.7969 47.3386 34.75 45.1563C34.3854 44.3907 34.0469 42.9376 34.9114 42.0366C35.2187 41.7241 35.5833 41.5157 36.0156 41.4116C36.4427 41.3126 36.8698 41.3282 37.2916 41.4688C37.7083 41.6095 38.0625 41.8438 38.3385 42.1824C38.6146 42.5157 38.776 42.9011 38.8229 43.3282C38.0208 42.2241 36.7448 42.5782 36.3594 43.0105C35.9427 43.4741 36.2916 44.4897 36.8594 45.0418C37.9219 46.073 39.875 45.6043 40.5364 45.448C41.0937 45.3126 41.5521 45.1251 44.2344 43.5418C45.3333 42.8907 45.7916 42.4636 47.2864 41.823C48.5781 41.2761 49.9323 41.073 51.3385 41.2084C54.7656 41.547 55.8021 42.6251 56.9948 43.3491Z" fill="#FF4B19"/>
            </g>
        </g>
    </g>
    <mask id="mask17_19_153" style="mask-type:luminance" maskUnits="userSpaceOnUse" x="55" y="36" width="6" height="6">
        <path d="M55.2915 36.9949H60.2915V41.9949H55.2915V36.9949Z" fill="white"/>
    </mask>
    <g mask="url(#mask17_19_153)">
        <path d="M60.2915 39.4949C60.2915 40.8751 59.1717 41.9949 57.7915 41.9949C57.0207 41.9949 56.328 41.6407 55.8696 41.0938C55.5259 40.6772 55.3175 40.1563 55.2967 39.5834C55.2967 39.5522 55.2915 39.5209 55.2915 39.4949C55.2915 38.1147 56.4113 36.9949 57.7915 36.9949C58.078 36.9949 58.3488 37.0417 58.604 37.1303C59.13 37.3074 59.578 37.6615 59.88 38.1147C60.1405 38.5105 60.2915 38.9845 60.2915 39.4949Z" fill="white"/>
    </g>
    <mask id="mask18_19_153" style="mask-type:luminance" maskUnits="userSpaceOnUse" x="20" y="25" width="30" height="15">
        <path d="M20.9114 31.5885L47.1614 25.25L49.0364 33.0313L22.7916 39.3646L20.9114 31.5885Z" fill="white"/>
    </mask>
    <g mask="url(#mask18_19_153)">
        <mask id="mask19_19_153" style="mask-type:luminance" maskUnits="userSpaceOnUse" x="13" y="22" width="51" height="34">
            <path d="M13.8906 33.2813L57.6354 22.724L63.0313 45.0834L19.2865 55.6407L13.8906 33.2813Z" fill="white"/>
        </mask>
        <g mask="url(#mask19_19_153)">
            <path d="M63.0314 45.0834L62.1303 45.3021C59.2762 33.4792 47.547 26.1302 35.9845 28.9219C24.422 31.7136 17.3334 43.6042 20.1824 55.4219L19.2866 55.6407C16.3126 43.3125 23.7032 30.9167 35.7605 28.0052C47.823 25.0938 60.0522 32.7552 63.0314 45.0834Z" fill="#070030"/>
        </g>
    </g>
</svg>
