<svg width="1440" height="32" viewBox="0 0 1440 32" fill="none" xmlns="http://www.w3.org/2000/svg">
    <path fill-rule="evenodd" clip-rule="evenodd" d="M688.132 5.66838L693.235 7.08234C706.167 10.6653 719.83 10.6643 732.761 7.07963L737.85 5.66907C761.101 -0.77644 785.668 -0.77644 808.92 5.66908C825.179 10.1764 842.359 10.1764 858.619 5.66907C881.87 -0.77644 906.437 -0.776436 929.689 5.66907C945.949 10.1764 963.128 10.1764 979.388 5.66908C1002.64 -0.776436 1027.21 -0.77644 1050.46 5.66908C1066.72 10.1764 1083.9 10.1764 1100.16 5.66908C1123.41 -0.776436 1147.98 -0.77644 1171.23 5.66908C1187.49 10.1764 1204.67 10.1764 1220.93 5.66908C1244.18 -0.776436 1268.75 -0.77644 1292 5.66907C1308.26 10.1764 1325.44 10.1764 1341.7 5.66908C1364.95 -0.77644 1389.51 -0.77644 1412.77 5.66908C1429.03 10.1764 1446.21 10.1764 1462.47 5.66907L1473.38 2.64221C1484.03 -0.308468 1495.05 5.92844 1498 16.5727C1500.95 27.217 1494.71 38.2379 1484.07 41.1886L1473.15 44.2154C1449.9 50.661 1425.33 50.661 1402.08 44.2154C1385.82 39.7081 1368.64 39.7081 1352.38 44.2154C1329.13 50.661 1304.56 50.661 1281.31 44.2154C1265.05 39.7081 1247.87 39.7081 1231.61 44.2155C1208.36 50.661 1183.79 50.661 1160.54 44.2154C1144.28 39.7081 1127.1 39.7081 1110.84 44.2155C1087.59 50.661 1063.02 50.661 1039.77 44.2155C1023.51 39.7081 1006.33 39.7081 990.073 44.2155C966.822 50.661 942.255 50.661 919.004 44.2155C902.744 39.7081 885.564 39.7081 869.304 44.2154C846.053 50.661 821.486 50.661 798.234 44.2154C781.974 39.7081 764.795 39.7081 748.535 44.2154L722.525 51.4256C720.215 52.0659 717.824 50.7125 717.183 48.4028C716.008 44.1617 709.994 44.1621 708.819 48.4034C708.179 50.7132 705.787 52.067 703.478 51.427L677.452 44.2162C661.179 39.7078 643.987 39.7078 627.715 44.2162C604.454 50.6609 579.879 50.6609 556.618 44.2162C540.346 39.7078 523.154 39.7078 506.882 44.2162C483.621 50.6609 459.046 50.6609 435.785 44.2162C419.513 39.7078 402.321 39.7078 386.048 44.2162C362.788 50.6609 338.212 50.6609 314.952 44.2162C298.679 39.7078 281.487 39.7078 265.215 44.2162C241.954 50.6609 217.379 50.6609 194.118 44.2162C177.846 39.7078 160.654 39.7078 144.382 44.2162C121.121 50.6609 96.5457 50.6609 73.2849 44.2162C57.0126 39.7078 39.8208 39.7078 23.5483 44.2162L-4.43604 51.9696C-5.66418 52.3099 -6.93579 51.5901 -7.27612 50.3618C-7.901 48.1065 -11.099 48.1065 -11.7239 50.3618C-12.0642 51.5901 -13.3358 52.3099 -14.564 51.9696L-42.5483 44.2162C-58.8207 39.7078 -76.0126 39.7078 -92.2849 44.2162C-115.546 50.6609 -140.121 50.6609 -163.382 44.2162C-179.654 39.7078 -196.846 39.7078 -213.118 44.2162C-236.379 50.6609 -260.954 50.6609 -284.215 44.2162C-300.487 39.7078 -317.679 39.7078 -333.952 44.2162C-357.212 50.6609 -381.788 50.6609 -405.048 44.2162C-421.321 39.7078 -438.513 39.7078 -454.785 44.2162C-478.046 50.6609 -502.621 50.6609 -525.882 44.2162C-542.154 39.7078 -559.346 39.7078 -575.618 44.2162C-598.879 50.6609 -623.454 50.6609 -646.715 44.2162C-662.987 39.7078 -680.179 39.7078 -696.452 44.2162L-707.386 47.2457C-718.031 50.1949 -729.051 43.9565 -732 33.3119C-734.949 22.6672 -728.711 11.6471 -718.066 8.69785L-707.132 5.66838C-683.871 -0.776268 -659.296 -0.776268 -636.035 5.66838C-619.763 10.1768 -602.571 10.1768 -586.298 5.66838C-563.038 -0.776268 -538.462 -0.77626 -515.202 5.66838C-498.929 10.1768 -481.737 10.1768 -465.465 5.66838C-442.204 -0.776268 -417.629 -0.776268 -394.368 5.66838C-378.096 10.1768 -360.904 10.1768 -344.632 5.66838C-321.371 -0.77626 -296.796 -0.776268 -273.535 5.66838C-257.263 10.1768 -240.071 10.1768 -223.798 5.66838C-200.538 -0.776264 -175.962 -0.776268 -152.702 5.66838C-136.429 10.1768 -119.237 10.1768 -102.965 5.66838C-79.7042 -0.776268 -55.129 -0.776264 -31.8683 5.66838L-29.2582 6.39155C-16.3296 9.97354 -2.67041 9.97354 10.2582 6.39154L12.8683 5.66838C36.129 -0.776268 60.7042 -0.776268 83.9651 5.66838C100.237 10.1768 117.429 10.1768 133.702 5.66838C156.962 -0.776268 181.538 -0.77626 204.798 5.66838C221.071 10.1768 238.263 10.1768 254.535 5.66838C277.796 -0.776268 302.371 -0.776268 325.632 5.66838C341.904 10.1768 359.096 10.1768 375.368 5.66838C398.629 -0.77626 423.204 -0.776268 446.465 5.66838C462.737 10.1768 479.929 10.1768 496.202 5.66838C519.462 -0.776264 544.038 -0.776268 567.298 5.66838C583.571 10.1768 600.763 10.1768 617.035 5.66838C640.296 -0.776268 664.871 -0.776264 688.132 5.66838Z" fill="white"/>
</svg>
